<svg width="16" height="16" viewBox="0 0 16 16" fill="none" xmlns="http://www.w3.org/2000/svg">
<path d="M8.00088 1.98639C8.00436 2.03881 7.99747 2.09141 7.98062 2.14117C7.96376 2.19094 7.93727 2.23689 7.90265 2.27642C7.86803 2.31594 7.82596 2.34825 7.77885 2.37152C7.73174 2.39478 7.68051 2.40853 7.62808 2.41199C6.55445 2.48336 5.52411 2.86252 4.66032 3.50412C3.79654 4.14573 3.13588 5.0226 2.7574 6.02983C2.37891 7.03707 2.29861 8.13202 2.52612 9.1837C2.75363 10.2354 3.2793 11.1992 4.04025 11.96C4.8012 12.7207 5.7652 13.2461 6.81694 13.4734C7.86868 13.7006 8.96361 13.62 9.97074 13.2412C10.9779 12.8625 11.8546 12.2016 12.4959 11.3376C13.1373 10.4737 13.5162 9.44324 13.5873 8.36959C13.5907 8.31716 13.6044 8.26593 13.6276 8.2188C13.6508 8.17167 13.6831 8.12958 13.7226 8.09493C13.7621 8.06027 13.808 8.03373 13.8577 8.01683C13.9075 7.99992 13.9601 7.99297 14.0125 7.99639C14.0649 7.9998 14.1161 8.01351 14.1633 8.03673C14.2104 8.05994 14.2525 8.09221 14.2871 8.1317C14.3218 8.17118 14.3483 8.2171 14.3652 8.26684C14.3822 8.31658 14.3891 8.36916 14.3857 8.42159C14.3046 9.6487 13.8717 10.8265 13.1387 11.814C12.4058 12.8015 11.4038 13.5569 10.2527 13.9898C9.10169 14.4228 7.85026 14.5149 6.6482 14.2553C5.44614 13.9956 4.34435 13.3951 3.47466 12.5256C2.60497 11.6561 2.0042 10.5544 1.74424 9.35244C1.48427 8.15044 1.57613 6.89899 2.00881 5.74783C2.44149 4.59667 3.19667 3.59455 4.184 2.86136C5.17133 2.12817 6.34899 1.69497 7.57608 1.61359C7.68183 1.60679 7.78595 1.64222 7.86559 1.71212C7.94524 1.78201 7.99389 1.88065 8.00088 1.98639ZM8.80488 2.03999C8.81529 1.98843 8.83576 1.93944 8.86512 1.8958C8.89449 1.85217 8.93217 1.81475 8.97601 1.7857C9.01985 1.75664 9.06899 1.73652 9.12062 1.72648C9.17225 1.71644 9.22535 1.71668 9.27688 1.72719C9.72488 1.81759 10.1553 1.95519 10.5633 2.13439C10.613 2.1543 10.6582 2.18401 10.6962 2.22173C10.7343 2.25945 10.7643 2.30443 10.7847 2.35399C10.805 2.40355 10.8151 2.45668 10.8145 2.51024C10.8139 2.5638 10.8026 2.61669 10.7811 2.66578C10.7597 2.71487 10.7286 2.75915 10.6897 2.796C10.6509 2.83285 10.605 2.86152 10.5548 2.8803C10.5047 2.89909 10.4512 2.9076 10.3977 2.90535C10.3442 2.9031 10.2917 2.89012 10.2433 2.86719C9.88179 2.70887 9.50446 2.58953 9.11768 2.51119C9.0662 2.50069 9.01729 2.48016 8.97374 2.45075C8.9302 2.42135 8.89287 2.38366 8.8639 2.33982C8.83493 2.29599 8.81487 2.24688 8.80488 2.1953C8.79489 2.14371 8.79517 2.09067 8.80568 2.03919M13.8689 5.44159C13.8479 5.39342 13.8176 5.34986 13.7797 5.3134C13.7419 5.27694 13.6972 5.24829 13.6483 5.22908C13.5994 5.20988 13.5472 5.2005 13.4946 5.20148C13.4421 5.20246 13.3902 5.21378 13.3421 5.23479C13.2939 5.2558 13.2504 5.28609 13.2139 5.32394C13.1774 5.36178 13.1488 5.40644 13.1296 5.45536C13.1104 5.50428 13.101 5.5565 13.102 5.60904C13.103 5.66158 13.1143 5.71342 13.1353 5.76159C13.2905 6.11599 13.4097 6.48959 13.4881 6.87919C13.5093 6.98315 13.5709 7.07443 13.6595 7.13294C13.748 7.19145 13.8561 7.21241 13.9601 7.19119C14.064 7.16997 14.1553 7.10832 14.2138 7.01981C14.2723 6.93129 14.2933 6.82315 14.2721 6.71919C14.1831 6.28031 14.0479 5.85206 13.8689 5.44159ZM11.5321 3.13119C11.6001 3.04986 11.6976 2.99886 11.8032 2.98941C11.9089 2.97996 12.0139 3.01283 12.0953 3.08079C12.4057 3.33919 12.6921 3.62719 12.9489 3.93999C12.9822 3.98059 13.0073 4.02737 13.0225 4.07765C13.0378 4.12793 13.043 4.18072 13.0379 4.23302C13.0328 4.28532 13.0174 4.33609 12.9927 4.38245C12.9679 4.42881 12.9343 4.46983 12.8937 4.50319C12.8531 4.53654 12.8063 4.56157 12.756 4.57685C12.7057 4.59213 12.6529 4.59736 12.6006 4.59223C12.5484 4.5871 12.4976 4.57173 12.4512 4.54698C12.4049 4.52223 12.3638 4.48859 12.3305 4.44799C12.1057 4.17411 11.8555 3.92206 11.5833 3.69519C11.5428 3.66155 11.5094 3.62027 11.485 3.5737C11.4605 3.52713 11.4454 3.4762 11.4407 3.42381C11.4359 3.37142 11.4416 3.31861 11.4572 3.2684C11.4729 3.21818 11.4984 3.17156 11.5321 3.13119ZM7.99928 4.39999C7.99928 4.2939 7.95714 4.19216 7.88212 4.11715C7.80711 4.04213 7.70537 3.99999 7.59928 3.99999C7.49319 3.99999 7.39145 4.04213 7.31644 4.11715C7.24142 4.19216 7.19928 4.2939 7.19928 4.39999V8.39999C7.19928 8.50607 7.24142 8.60782 7.31644 8.68283C7.39145 8.75785 7.49319 8.79999 7.59928 8.79999H9.99928C10.1054 8.79999 10.2071 8.75785 10.2821 8.68283C10.3571 8.60782 10.3993 8.50607 10.3993 8.39999C10.3993 8.2939 10.3571 8.19216 10.2821 8.11715C10.2071 8.04213 10.1054 7.99999 9.99928 7.99999H7.99928V4.39999Z" fill="#A1A1A1"/>
</svg>
