<svg width="16" height="16" viewBox="0 0 16 16" fill="none" xmlns="http://www.w3.org/2000/svg">
    <path
        d="M3.73333 13.2801L4.74933 12.4674L4.756 12.4621C4.968 12.2921 5.07533 12.2067 5.19467 12.1461C5.30133 12.0914 5.41533 12.0514 5.53333 12.0274C5.666 12.0001 5.804 12.0001 6.08133 12.0001H11.8687C12.614 12.0001 12.9873 12.0001 13.272 11.8547C13.5229 11.7269 13.7268 11.523 13.8547 11.2721C14 10.9867 14 10.6134 14 9.86941V4.79808C14 4.05275 14 3.67941 13.8547 3.39475C13.7266 3.1438 13.5224 2.93983 13.2713 2.81208C12.9867 2.66675 12.6133 2.66675 11.8667 2.66675H4.13333C3.38667 2.66675 3.01333 2.66675 2.728 2.81208C2.4771 2.93987 2.27313 3.14385 2.14533 3.39475C2 3.68008 2 4.05341 2 4.80008V12.4474C2 13.1581 2 13.5134 2.14533 13.6954C2.20783 13.7739 2.28722 13.8372 2.3776 13.8807C2.46799 13.9243 2.56702 13.9468 2.66733 13.9467C2.90067 13.9467 3.178 13.7241 3.73333 13.2801Z"
        stroke="#070707" stroke-width="1.33333" stroke-linecap="round" stroke-linejoin="round" />
</svg>