<svg width="16" height="16" viewBox="0 0 16 16" fill="none" xmlns="http://www.w3.org/2000/svg">
    <path
        d="M14.6668 13.3333H1.3335V11.9999H2.00016V7.35392C2.00016 4.02859 4.68683 1.33325 8.00016 1.33325C11.3135 1.33325 14.0002 4.02859 14.0002 7.35392V11.9999H14.6668V13.3333ZM3.3335 11.9999H12.6668V7.35392C12.6668 4.76525 10.5775 2.66659 8.00016 2.66659C5.42283 2.66659 3.3335 4.76525 3.3335 7.35392V11.9999ZM6.3335 13.9999H9.66683C9.66683 14.4419 9.49123 14.8659 9.17867 15.1784C8.86611 15.491 8.44219 15.6666 8.00016 15.6666C7.55814 15.6666 7.13421 15.491 6.82165 15.1784C6.50909 14.8659 6.3335 14.4419 6.3335 13.9999Z"
        fill="#070707" />
</svg>