<svg width="16" height="16" viewBox="0 0 16 16" fill="none" xmlns="http://www.w3.org/2000/svg">
    <g clip-path="url(#clip0_99_2381)">
        <path
            d="M6.09483 14.3902C4.99218 14.061 3.99356 13.4519 3.19616 12.6222C3.45272 12.3179 3.61265 11.944 3.65549 11.5483C3.69833 11.1526 3.62213 10.7531 3.43664 10.401C3.25116 10.0488 2.96481 9.76001 2.61426 9.57152C2.26371 9.38303 1.86488 9.30343 1.46883 9.34289C1.3786 8.90092 1.33326 8.45097 1.3335 7.99989C1.3335 7.30322 1.44016 6.63122 1.63883 5.99989H1.66683C2.00675 5.99999 2.34109 5.91347 2.63828 5.74847C2.93546 5.58347 3.18569 5.34545 3.36534 5.05688C3.54499 4.76831 3.64812 4.43872 3.665 4.09922C3.68189 3.75972 3.61196 3.42152 3.46183 3.11655C4.24336 2.38883 5.18852 1.85983 6.2175 1.57422C6.38496 1.90302 6.64011 2.17908 6.95473 2.37187C7.26935 2.56465 7.63118 2.66664 8.00016 2.66655C8.36915 2.66664 8.73097 2.56465 9.04559 2.37187C9.36022 2.17908 9.61537 1.90302 9.78283 1.57422C10.8118 1.85983 11.757 2.38883 12.5385 3.11655C12.3873 3.42366 12.3174 3.76443 12.3356 4.10627C12.3537 4.44811 12.4594 4.77956 12.6423 5.06889C12.8252 5.35823 13.0794 5.59577 13.3804 5.75878C13.6814 5.92179 14.0192 6.00481 14.3615 5.99989C14.5645 6.64712 14.6674 7.32156 14.6668 7.99989C14.6668 8.45989 14.6202 8.90922 14.5315 9.34322C14.1354 9.30376 13.7366 9.38337 13.3861 9.57186C13.0355 9.76035 12.7492 10.0491 12.5637 10.4013C12.3782 10.7534 12.302 11.1529 12.3448 11.5486C12.3877 11.9443 12.5476 12.3183 12.8042 12.6226C12.0067 13.4521 11.0081 14.0611 9.9055 14.3902C9.77601 13.9867 9.52173 13.6346 9.17931 13.3849C8.83688 13.1351 8.424 13.0005 8.00016 13.0005C7.57633 13.0005 7.16345 13.1351 6.82102 13.3849C6.47859 13.6346 6.22431 13.9867 6.09483 14.3902Z"
            stroke="#070707" stroke-width="1.33333" stroke-linejoin="round" />
        <path
            d="M8.00033 10.3332C8.30674 10.3332 8.61016 10.2728 8.89325 10.1556C9.17635 10.0383 9.43357 9.86642 9.65024 9.64975C9.86691 9.43308 10.0388 9.17586 10.156 8.89277C10.2733 8.60967 10.3337 8.30626 10.3337 7.99984C10.3337 7.69342 10.2733 7.39 10.156 7.10691C10.0388 6.82382 9.86691 6.56659 9.65024 6.34992C9.43357 6.13325 9.17635 5.96138 8.89325 5.84412C8.61016 5.72686 8.30674 5.6665 8.00033 5.6665C7.38149 5.6665 6.78799 5.91234 6.35041 6.34992C5.91282 6.78751 5.66699 7.381 5.66699 7.99984C5.66699 8.61868 5.91282 9.21217 6.35041 9.64975C6.78799 10.0873 7.38149 10.3332 8.00033 10.3332Z"
            stroke="#070707" stroke-width="1.33333" stroke-linejoin="round" />
    </g>
    <defs>
        <clipPath id="clip0_99_2381">
            <rect width="16" height="16" fill="white" />
        </clipPath>
    </defs>
</svg>