<svg width="102" height="68" viewBox="0 0 102 68" fill="none" xmlns="http://www.w3.org/2000/svg">
<path d="M0.288574 33C0.288574 33.2761 0.512432 33.5 0.788574 33.5H5.28857C5.56472 33.5 5.78857 33.2761 5.78857 33C5.78857 32.7239 5.56472 32.5 5.28857 32.5H1.28857V28.5C1.28857 28.2239 1.06472 28 0.788574 28C0.512432 28 0.288574 28.2239 0.288574 28.5L0.288574 33ZM33.1084 1.1802C33.1084 0.904053 32.8845 0.680195 32.6084 0.680195L28.1084 0.680195C27.8322 0.680195 27.6084 0.904053 27.6084 1.1802C27.6084 1.45634 27.8322 1.6802 28.1084 1.6802H32.1084V5.6802C32.1084 5.95634 32.3322 6.1802 32.6084 6.1802C32.8845 6.1802 33.1084 5.95634 33.1084 5.6802L33.1084 1.1802ZM1.14213 33.3536L32.9619 1.53375L32.2548 0.826642L0.435021 32.6464L1.14213 33.3536Z" fill="#BCDEFF"/>
<path d="M101.211 33.5C101.488 33.5 101.711 33.2761 101.711 33V28.5C101.711 28.2239 101.488 28 101.211 28C100.935 28 100.711 28.2239 100.711 28.5V32.5H96.7114C96.4353 32.5 96.2114 32.7239 96.2114 33C96.2114 33.2761 96.4353 33.5 96.7114 33.5H101.211ZM69.3916 0.680195C69.1155 0.680195 68.8916 0.904053 68.8916 1.1802L68.8916 5.6802C68.8916 5.95634 69.1155 6.1802 69.3916 6.1802C69.6678 6.1802 69.8916 5.95634 69.8916 5.6802V1.6802H73.8916C74.1678 1.6802 74.3916 1.45634 74.3916 1.1802C74.3916 0.904053 74.1678 0.680195 73.8916 0.680195L69.3916 0.680195ZM101.565 32.6464L69.7452 0.826642L69.0381 1.53375L100.858 33.3536L101.565 32.6464Z" fill="#BCDEFF"/>
<path d="M18.6464 63.6464C18.4512 63.8417 18.4512 64.1583 18.6464 64.3536L21.8284 67.5355C22.0237 67.7308 22.3403 67.7308 22.5355 67.5355C22.7308 67.3403 22.7308 67.0237 22.5355 66.8284L19.7071 64L22.5355 61.1716C22.7308 60.9763 22.7308 60.6597 22.5355 60.4645C22.3403 60.2692 22.0237 60.2692 21.8284 60.4645L18.6464 63.6464ZM85.3536 64.3536C85.5488 64.1583 85.5488 63.8417 85.3536 63.6464L82.1716 60.4645C81.9763 60.2692 81.6597 60.2692 81.4645 60.4645C81.2692 60.6597 81.2692 60.9763 81.4645 61.1716L84.2929 64L81.4645 66.8284C81.2692 67.0237 81.2692 67.3403 81.4645 67.5355C81.6597 67.7308 81.9763 67.7308 82.1716 67.5355L85.3536 64.3536ZM19 64.5H85V63.5H19V64.5Z" fill="#BCDEFF"/>
</svg>
