<svg width="24" height="24" viewBox="0 0 24 24" fill="none" xmlns="http://www.w3.org/2000/svg">
<path d="M17.8242 16.9752C17.8799 17.031 17.9241 17.0971 17.9543 17.17C17.9845 17.2428 18 17.3209 18 17.3997C18 17.4785 17.9845 17.5566 17.9543 17.6294C17.9241 17.7023 17.8799 17.7684 17.8242 17.8242C17.7684 17.8799 17.7023 17.9241 17.6294 17.9543C17.5566 17.9845 17.4785 18 17.3997 18C17.3209 18 17.2428 17.9845 17.17 17.9543C17.0971 17.9241 17.031 17.8799 16.9752 17.8242L12 12.8482L7.02478 17.8242C6.9122 17.9368 6.75951 18 6.6003 18C6.44109 18 6.2884 17.9368 6.17582 17.8242C6.06325 17.7116 6 17.5589 6 17.3997C6 17.2405 6.06325 17.0878 6.17582 16.9752L11.1518 12L6.17582 7.02478C6.06325 6.9122 6 6.75951 6 6.6003C6 6.44109 6.06325 6.2884 6.17582 6.17582C6.2884 6.06325 6.44109 6 6.6003 6C6.75951 6 6.9122 6.06325 7.02478 6.17582L12 11.1518L16.9752 6.17582C17.0878 6.06325 17.2405 6 17.3997 6C17.5589 6 17.7116 6.06325 17.8242 6.17582C17.9368 6.2884 18 6.44109 18 6.6003C18 6.75951 17.9368 6.9122 17.8242 7.02478L12.8482 12L17.8242 16.9752Z" fill="#A1A1A1"/>
</svg>
