<svg width="20" height="20" viewBox="0 0 20 20" fill="none" xmlns="http://www.w3.org/2000/svg">
<path d="M1.66797 10C1.66797 13.9284 1.66797 15.8917 2.8888 17.1125C4.1088 18.3325 6.07297 18.3325 10.0013 18.3325C13.9296 18.3325 15.8938 18.3325 17.1146 17.1125C18.2455 15.9817 18.328 14.2125 18.3346 10.8325M9.16797 1.66669C5.7888 1.67252 4.01964 1.75585 2.8888 2.88669C2.20797 3.56669 1.90714 4.47835 1.7738 5.83335" stroke="#A1A1A1" stroke-width="1.25" stroke-linecap="round"/>
<path d="M10.8353 9.16669L18.3353 1.66669M18.3353 1.66669H13.882M18.3353 1.66669V6.12002M17.502 2.50002L10.002 10M10.002 10H13.3353M10.002 10V6.66669" stroke="#A1A1A1" stroke-width="1.25" stroke-linecap="round" stroke-linejoin="round"/>
</svg>
