<svg width="24" height="24" viewBox="0 0 24 24" fill="none" xmlns="http://www.w3.org/2000/svg">
<path d="M8.00078 12C8.00078 12.4774 7.83221 12.9352 7.53215 13.2728C7.23209 13.6104 6.82513 13.8 6.40078 13.8C5.97643 13.8 5.56947 13.6104 5.26941 13.2728C4.96935 12.9352 4.80078 12.4774 4.80078 12C4.80078 11.5226 4.96935 11.0648 5.26941 10.7272C5.56947 10.3897 5.97643 10.2 6.40078 10.2C6.82513 10.2 7.23209 10.3897 7.53215 10.7272C7.83221 11.0648 8.00078 11.5226 8.00078 12ZM13.6008 12C13.6008 12.4774 13.4322 12.9352 13.1322 13.2728C12.8321 13.6104 12.4251 13.8 12.0008 13.8C11.5764 13.8 11.1695 13.6104 10.8694 13.2728C10.5694 12.9352 10.4008 12.4774 10.4008 12C10.4008 11.5226 10.5694 11.0648 10.8694 10.7272C11.1695 10.3897 11.5764 10.2 12.0008 10.2C12.4251 10.2 12.8321 10.3897 13.1322 10.7272C13.4322 11.0648 13.6008 11.5226 13.6008 12ZM19.2008 12C19.2008 12.4774 19.0322 12.9352 18.7322 13.2728C18.4321 13.6104 18.0251 13.8 17.6008 13.8C17.1764 13.8 16.7695 13.6104 16.4694 13.2728C16.1694 12.9352 16.0008 12.4774 16.0008 12C16.0008 11.5226 16.1694 11.0648 16.4694 10.7272C16.7695 10.3897 17.1764 10.2 17.6008 10.2C18.0251 10.2 18.4321 10.3897 18.7322 10.7272C19.0322 11.0648 19.2008 11.5226 19.2008 12Z" fill="#A1A1A1"/>
</svg>
