<svg width="16" height="16" viewBox="0 0 16 16" fill="none" xmlns="http://www.w3.org/2000/svg">
    <path
        d="M5.33399 6.66667V4.66667C5.33334 4.01716 5.56977 3.38974 5.9989 2.90218C6.42803 2.41463 7.02035 2.10045 7.66468 2.01862C8.30902 1.93678 8.96107 2.09293 9.49845 2.45774C10.0358 2.82255 10.4216 3.37095 10.5833 4"
        stroke="#070707" stroke-linecap="round" />
    <path
        d="M3.33398 6.66667H12.6673V12.6667C12.6673 13.0203 12.5268 13.3594 12.2768 13.6095C12.0267 13.8595 11.6876 14 11.334 14H4.66732C4.3137 14 3.97456 13.8595 3.72451 13.6095C3.47446 13.3594 3.33398 13.0203 3.33398 12.6667V6.66667Z"
        stroke="#070707" stroke-linejoin="round" />
    <path d="M9.66797 10.3333H9.67464V10.34H9.66797V10.3333Z" stroke="#070707" stroke-width="1.5"
        stroke-linejoin="round" />
</svg>