<svg width="35" height="28" viewBox="0 0 35 28" fill="none" xmlns="http://www.w3.org/2000/svg">
    <path
        d="M12.4987 20.667H15.832V15.667H20.832V12.3337H15.832V7.33366H12.4987V12.3337H7.4987V15.667H12.4987V20.667ZM4.16536 27.3337C3.2487 27.3337 2.46425 27.0075 1.81203 26.3553C1.15981 25.7031 0.833142 24.9181 0.832031 24.0003V4.00033C0.832031 3.08366 1.1587 2.29921 1.81203 1.64699C2.46536 0.99477 3.24981 0.668103 4.16536 0.666992H24.1654C25.082 0.666992 25.867 0.993659 26.5204 1.64699C27.1737 2.30033 27.4998 3.08477 27.4987 4.00033V11.5003L34.1654 4.83366V23.167L27.4987 16.5003V24.0003C27.4987 24.917 27.1726 25.702 26.5204 26.3553C25.8681 27.0087 25.0831 27.3348 24.1654 27.3337H4.16536ZM4.16536 24.0003H24.1654V4.00033H4.16536V24.0003Z"
        fill="#2A85FF" />
</svg>