<svg width="20" height="20" viewBox="0 0 20 20" fill="none" xmlns="http://www.w3.org/2000/svg">
<path d="M17.5 17.4999L13.8808 13.8808M13.8808 13.8808C14.4999 13.2617 14.991 12.5267 15.326 11.7179C15.661 10.909 15.8335 10.0421 15.8335 9.16659C15.8335 8.29109 15.6611 7.42416 15.326 6.61531C14.991 5.80645 14.4999 5.0715 13.8808 4.45243C13.2617 3.83335 12.5268 3.34228 11.7179 3.00724C10.9091 2.6722 10.0422 2.49976 9.16666 2.49976C8.29115 2.49976 7.42422 2.6722 6.61537 3.00724C5.80651 3.34228 5.07156 3.83335 4.45249 4.45243C3.20221 5.7027 2.49982 7.39844 2.49982 9.16659C2.49982 10.9347 3.20221 12.6305 4.45249 13.8808C5.70276 15.131 7.3985 15.8334 9.16666 15.8334C10.9348 15.8334 12.6305 15.131 13.8808 13.8808Z" stroke="#9CCDFE" stroke-width="1.25" stroke-linecap="round" stroke-linejoin="round"/>
</svg>
