<svg width="20" height="20" viewBox="0 0 20 20" fill="none" xmlns="http://www.w3.org/2000/svg">
    <path
        d="M8.33333 10.8334L10 9.16671M10 9.16671L11.6667 7.50004M10 9.16671L8.33333 7.50004M10 9.16671L11.6667 10.8334M5.93667 15.5842L4.66667 16.6009C3.9725 17.155 3.62583 17.4325 3.33417 17.4334C3.20878 17.4335 3.08498 17.4053 2.97201 17.3509C2.85903 17.2965 2.75978 17.2173 2.68167 17.1192C2.5 16.8917 2.5 16.4475 2.5 15.5592V6.00087C2.5 5.06754 2.5 4.60004 2.68167 4.24254C2.84167 3.92921 3.09583 3.67504 3.41 3.51504C3.76667 3.33337 4.23333 3.33337 5.16667 3.33337H14.8333C15.7667 3.33337 16.2333 3.33337 16.5892 3.51504C16.9033 3.67504 17.1583 3.92921 17.3183 4.24337C17.5 4.59921 17.5 5.06587 17.5 5.99754V12.3367C17.5 13.2675 17.5 13.7334 17.3183 14.09C17.1585 14.4036 16.9036 14.6586 16.59 14.8184C16.2342 15 15.7675 15 14.8358 15H7.6025C7.255 15 7.0825 15 6.91667 15.0334C6.76949 15.0638 6.62709 15.114 6.49333 15.1825C6.34333 15.2584 6.21 15.3659 5.94583 15.5775L5.93667 15.5842Z"
        stroke="#A1A1A1" stroke-width="1.66667" stroke-linecap="round" stroke-linejoin="round" />
</svg>