<svg width="16" height="16" viewBox="0 0 16 16" fill="none" xmlns="http://www.w3.org/2000/svg">
    <path
        d="M12.8538 12.1463C12.9002 12.1927 12.9371 12.2479 12.9622 12.3086C12.9874 12.3693 13.0003 12.4343 13.0003 12.5C13.0003 12.5657 12.9874 12.6308 12.9622 12.6915C12.9371 12.7522 12.9002 12.8073 12.8538 12.8538C12.8073 12.9002 12.7522 12.9371 12.6915 12.9622C12.6308 12.9874 12.5657 13.0003 12.5 13.0003C12.4343 13.0003 12.3693 12.9874 12.3086 12.9622C12.2479 12.9371 12.1927 12.9002 12.1463 12.8538L8.00003 8.70691L3.85378 12.8538C3.75996 12.9476 3.63272 13.0003 3.50003 13.0003C3.36735 13.0003 3.2401 12.9476 3.14628 12.8538C3.05246 12.76 2.99976 12.6327 2.99976 12.5C2.99976 12.3674 3.05246 12.2401 3.14628 12.1463L7.29316 8.00003L3.14628 3.85378C3.05246 3.75996 2.99976 3.63272 2.99976 3.50003C2.99976 3.36735 3.05246 3.2401 3.14628 3.14628C3.2401 3.05246 3.36735 2.99976 3.50003 2.99976C3.63272 2.99976 3.75996 3.05246 3.85378 3.14628L8.00003 7.29316L12.1463 3.14628C12.2401 3.05246 12.3674 2.99976 12.5 2.99976C12.6327 2.99976 12.76 3.05246 12.8538 3.14628C12.9476 3.2401 13.0003 3.36735 13.0003 3.50003C13.0003 3.63272 12.9476 3.75996 12.8538 3.85378L8.70691 8.00003L12.8538 12.1463Z"
        fill="#070707" stroke="black" stroke-width="0.5" />
</svg>