<svg width="20" height="20" viewBox="0 0 20 20" fill="none" xmlns="http://www.w3.org/2000/svg">
    <g clip-path="url(#clip0_16_3436)">
        <path
            d="M12.207 13.0176C12.6497 13.2389 13.0501 13.5156 13.4082 13.8477C13.7663 14.1797 14.069 14.5638 14.3164 15H12.7832C12.4316 14.6029 12.015 14.2969 11.5332 14.082C11.0514 13.8672 10.5404 13.7565 10 13.75C9.47917 13.75 8.99414 13.8477 8.54492 14.043C8.0957 14.2383 7.69857 14.5052 7.35352 14.8438C7.00846 15.1823 6.73828 15.5827 6.54297 16.0449C6.34766 16.5072 6.25 16.9922 6.25 17.5H5C5 17.0247 5.0651 16.5658 5.19531 16.123C5.32552 15.6803 5.51107 15.2604 5.75195 14.8633C5.99284 14.4661 6.28906 14.1146 6.64062 13.8086C6.99219 13.5026 7.3763 13.2389 7.79297 13.0176C7.30469 12.666 6.92708 12.2266 6.66016 11.6992C6.39323 11.1719 6.25651 10.6055 6.25 10C6.25 9.65495 6.1849 9.33268 6.05469 9.0332C5.92448 8.73372 5.74544 8.4668 5.51758 8.23242C5.28971 7.99805 5.02604 7.81901 4.72656 7.69531C4.42708 7.57161 4.10156 7.50651 3.75 7.5C3.40495 7.5 3.08268 7.5651 2.7832 7.69531C2.48372 7.82552 2.2168 8.00456 1.98242 8.23242C1.74805 8.46029 1.56901 8.72396 1.44531 9.02344C1.32161 9.32292 1.25651 9.64844 1.25 10H0C0 9.66146 0.0455729 9.32943 0.136719 9.00391C0.227865 8.67839 0.354818 8.37565 0.517578 8.0957C0.680339 7.81576 0.885417 7.55534 1.13281 7.31445C1.38021 7.07357 1.65039 6.875 1.94336 6.71875C1.72201 6.49089 1.55273 6.22721 1.43555 5.92773C1.31836 5.62826 1.25651 5.31901 1.25 5C1.25 4.65495 1.3151 4.33268 1.44531 4.0332C1.57552 3.73372 1.75456 3.4668 1.98242 3.23242C2.21029 2.99805 2.47396 2.81901 2.77344 2.69531C3.07292 2.57161 3.39844 2.50651 3.75 2.5C4.09505 2.5 4.41732 2.5651 4.7168 2.69531C5.01628 2.82552 5.2832 3.00456 5.51758 3.23242C5.75195 3.46029 5.93099 3.72396 6.05469 4.02344C6.17839 4.32292 6.24349 4.64844 6.25 5C6.25 5.31901 6.19141 5.62826 6.07422 5.92773C5.95703 6.22721 5.78451 6.49089 5.55664 6.71875C5.83008 6.86849 6.07422 7.04753 6.28906 7.25586C6.50391 7.46419 6.69922 7.69206 6.875 7.93945C7.05078 7.67904 7.2526 7.44466 7.48047 7.23633C7.70833 7.02799 7.95573 6.85221 8.22266 6.70898C8.48958 6.56576 8.77279 6.45182 9.07227 6.36719C9.37175 6.28255 9.68099 6.24349 10 6.25C10.3125 6.25 10.6185 6.28906 10.918 6.36719C11.2174 6.44531 11.5007 6.55599 11.7676 6.69922C12.0345 6.84245 12.2852 7.02148 12.5195 7.23633C12.7539 7.45117 12.9557 7.68555 13.125 7.93945C13.2943 7.69206 13.4863 7.46419 13.7012 7.25586C13.916 7.04753 14.1634 6.86849 14.4434 6.71875C14.222 6.49089 14.0527 6.22721 13.9355 5.92773C13.8184 5.62826 13.7565 5.31901 13.75 5C13.75 4.65495 13.8151 4.33268 13.9453 4.0332C14.0755 3.73372 14.2546 3.4668 14.4824 3.23242C14.7103 2.99805 14.974 2.81901 15.2734 2.69531C15.5729 2.57161 15.8984 2.50651 16.25 2.5C16.5951 2.5 16.9173 2.5651 17.2168 2.69531C17.5163 2.82552 17.7832 3.00456 18.0176 3.23242C18.252 3.46029 18.431 3.72396 18.5547 4.02344C18.6784 4.32292 18.7435 4.64844 18.75 5C18.75 5.31901 18.6914 5.62826 18.5742 5.92773C18.457 6.22721 18.2845 6.49089 18.0566 6.71875C18.3561 6.88151 18.6263 7.08008 18.8672 7.31445C19.1081 7.54883 19.3099 7.80599 19.4727 8.08594C19.6354 8.36589 19.7656 8.67188 19.8633 9.00391C19.9609 9.33594 20.0065 9.66797 20 10H18.75C18.75 9.65495 18.6849 9.33268 18.5547 9.0332C18.4245 8.73372 18.2454 8.4668 18.0176 8.23242C17.7897 7.99805 17.526 7.81901 17.2266 7.69531C16.9271 7.57161 16.6016 7.50651 16.25 7.5C15.9049 7.5 15.5827 7.5651 15.2832 7.69531C14.9837 7.82552 14.7168 8.00456 14.4824 8.23242C14.248 8.46029 14.069 8.72396 13.9453 9.02344C13.8216 9.32292 13.7565 9.64844 13.75 10C13.75 10.599 13.6165 11.1621 13.3496 11.6895C13.0827 12.2168 12.7018 12.6595 12.207 13.0176ZM16.25 3.75C16.0742 3.75 15.9115 3.78255 15.7617 3.84766C15.612 3.91276 15.4818 4.00065 15.3711 4.11133C15.2604 4.22201 15.1693 4.35547 15.0977 4.51172C15.026 4.66797 14.9935 4.83073 15 5C15 5.17578 15.0326 5.33854 15.0977 5.48828C15.1628 5.63802 15.2507 5.76823 15.3613 5.87891C15.472 5.98958 15.6055 6.08073 15.7617 6.15234C15.918 6.22396 16.0807 6.25651 16.25 6.25C16.4258 6.25 16.5885 6.21745 16.7383 6.15234C16.888 6.08724 17.0182 5.99935 17.1289 5.88867C17.2396 5.77799 17.3307 5.64453 17.4023 5.48828C17.474 5.33203 17.5065 5.16927 17.5 5C17.5 4.82422 17.4674 4.66146 17.4023 4.51172C17.3372 4.36198 17.2493 4.23177 17.1387 4.12109C17.028 4.01042 16.8945 3.91927 16.7383 3.84766C16.582 3.77604 16.4193 3.74349 16.25 3.75ZM3.75 6.25C3.92578 6.25 4.08854 6.21745 4.23828 6.15234C4.38802 6.08724 4.51823 5.99935 4.62891 5.88867C4.73958 5.77799 4.83073 5.64453 4.90234 5.48828C4.97396 5.33203 5.00651 5.16927 5 5C5 4.82422 4.96745 4.66146 4.90234 4.51172C4.83724 4.36198 4.74935 4.23177 4.63867 4.12109C4.52799 4.01042 4.39453 3.91927 4.23828 3.84766C4.08203 3.77604 3.91927 3.74349 3.75 3.75C3.57422 3.75 3.41146 3.78255 3.26172 3.84766C3.11198 3.91276 2.98177 4.00065 2.87109 4.11133C2.76042 4.22201 2.66927 4.35547 2.59766 4.51172C2.52604 4.66797 2.49349 4.83073 2.5 5C2.5 5.17578 2.53255 5.33854 2.59766 5.48828C2.66276 5.63802 2.75065 5.76823 2.86133 5.87891C2.97201 5.98958 3.10547 6.08073 3.26172 6.15234C3.41797 6.22396 3.58073 6.25651 3.75 6.25ZM10 12.5C10.3451 12.5 10.6673 12.4349 10.9668 12.3047C11.2663 12.1745 11.5332 11.9954 11.7676 11.7676C12.002 11.5397 12.181 11.276 12.3047 10.9766C12.4284 10.6771 12.4935 10.3516 12.5 10C12.5 9.65495 12.4349 9.33268 12.3047 9.0332C12.1745 8.73372 11.9954 8.4668 11.7676 8.23242C11.5397 7.99805 11.276 7.81901 10.9766 7.69531C10.6771 7.57161 10.3516 7.50651 10 7.5C9.65495 7.5 9.33268 7.5651 9.0332 7.69531C8.73372 7.82552 8.4668 8.00456 8.23242 8.23242C7.99805 8.46029 7.81901 8.72396 7.69531 9.02344C7.57161 9.32292 7.50651 9.64844 7.5 10C7.5 10.3451 7.5651 10.6673 7.69531 10.9668C7.82552 11.2663 8.00456 11.5332 8.23242 11.7676C8.46029 12.002 8.72396 12.181 9.02344 12.3047C9.32292 12.4284 9.64844 12.4935 10 12.5ZM17.5 16.25H20V17.5H17.5V20H16.25V17.5H13.75V16.25H16.25V13.75H17.5V16.25Z"
            fill="#070707" />
    </g>
    <defs>
        <clipPath id="clip0_16_3436">
            <rect width="20" height="20" fill="white" />
        </clipPath>
    </defs>
</svg>