<svg width="16" height="16" viewBox="0 0 16 16" fill="none" xmlns="http://www.w3.org/2000/svg">
    <path
        d="M5.33301 8.66667L8.15167 10.9213C8.28875 11.0308 8.46347 11.0819 8.63794 11.0634C8.81241 11.0449 8.97256 10.9584 9.08367 10.8227L14.6663 4"
        stroke="#2A85FF" stroke-width="1.33333" stroke-linecap="round" />
    <path fill-rule="evenodd" clip-rule="evenodd"
        d="M7.45984 8.15801L10.5158 4.422C10.6246 4.28482 10.675 4.11039 10.6562 3.93636C10.6374 3.76233 10.5509 3.60267 10.4154 3.49186C10.2799 3.38104 10.1063 3.32796 9.93198 3.34408C9.75768 3.3602 9.59672 3.44422 9.48384 3.57801L6.43517 7.30467L7.45984 8.15801ZM5.34851 10.738L4.32384 9.88467L3.88851 10.4167L1.73317 8.8C1.59172 8.69392 1.41393 8.64837 1.23889 8.67337C1.06386 8.69838 0.905927 8.79189 0.79984 8.93334C0.693753 9.07479 0.648202 9.25258 0.673207 9.42762C0.698212 9.60265 0.791724 9.76058 0.933173 9.86667L3.08851 11.4833C3.36365 11.6896 3.70787 11.7817 4.04925 11.7402C4.39064 11.6987 4.70279 11.5269 4.92051 11.2607L5.34851 10.738Z"
        fill="#2A85FF" />
</svg>