<svg width="20" height="20" viewBox="0 0 20 20" fill="none" xmlns="http://www.w3.org/2000/svg">
<path d="M11.25 13.3333C11.4158 13.3333 11.5747 13.3992 11.6919 13.5164C11.8092 13.6336 11.875 13.7926 11.875 13.9583C11.875 14.1241 11.8092 14.2831 11.6919 14.4003C11.5747 14.5175 11.4158 14.5833 11.25 14.5833H8.75C8.58424 14.5833 8.42527 14.5175 8.30806 14.4003C8.19085 14.2831 8.125 14.1241 8.125 13.9583C8.125 13.7926 8.19085 13.6336 8.30806 13.5164C8.42527 13.3992 8.58424 13.3333 8.75 13.3333H11.25ZM13.75 9.16667C13.9158 9.16667 14.0747 9.23251 14.1919 9.34973C14.3092 9.46694 14.375 9.62591 14.375 9.79167C14.375 9.95743 14.3092 10.1164 14.1919 10.2336C14.0747 10.3508 13.9158 10.4167 13.75 10.4167H6.25C6.08424 10.4167 5.92527 10.3508 5.80806 10.2336C5.69085 10.1164 5.625 9.95743 5.625 9.79167C5.625 9.62591 5.69085 9.46694 5.80806 9.34973C5.92527 9.23251 6.08424 9.16667 6.25 9.16667H13.75ZM16.25 5C16.4158 5 16.5747 5.06585 16.6919 5.18306C16.8092 5.30027 16.875 5.45924 16.875 5.625C16.875 5.79076 16.8092 5.94973 16.6919 6.06694C16.5747 6.18415 16.4158 6.25 16.25 6.25H3.75C3.58424 6.25 3.42527 6.18415 3.30806 6.06694C3.19085 5.94973 3.125 5.79076 3.125 5.625C3.125 5.45924 3.19085 5.30027 3.30806 5.18306C3.42527 5.06585 3.58424 5 3.75 5H16.25Z" fill="#2A85FF"/>
</svg>
