<svg width="20" height="21" viewBox="0 0 20 21" fill="none" xmlns="http://www.w3.org/2000/svg">
    <path
        d="M11.25 13.8333C11.4158 13.8333 11.5747 13.8992 11.6919 14.0164C11.8092 14.1336 11.875 14.2926 11.875 14.4583C11.875 14.6241 11.8092 14.7831 11.6919 14.9003C11.5747 15.0175 11.4158 15.0833 11.25 15.0833H8.75C8.58424 15.0833 8.42527 15.0175 8.30806 14.9003C8.19085 14.7831 8.125 14.6241 8.125 14.4583C8.125 14.2926 8.19085 14.1336 8.30806 14.0164C8.42527 13.8992 8.58424 13.8333 8.75 13.8333H11.25ZM13.75 9.66667C13.9158 9.66667 14.0747 9.73251 14.1919 9.84973C14.3092 9.96694 14.375 10.1259 14.375 10.2917C14.375 10.4574 14.3092 10.6164 14.1919 10.7336C14.0747 10.8508 13.9158 10.9167 13.75 10.9167H6.25C6.08424 10.9167 5.92527 10.8508 5.80806 10.7336C5.69085 10.6164 5.625 10.4574 5.625 10.2917C5.625 10.1259 5.69085 9.96694 5.80806 9.84973C5.92527 9.73251 6.08424 9.66667 6.25 9.66667H13.75ZM16.25 5.5C16.4158 5.5 16.5747 5.56585 16.6919 5.68306C16.8092 5.80027 16.875 5.95924 16.875 6.125C16.875 6.29076 16.8092 6.44973 16.6919 6.56694C16.5747 6.68415 16.4158 6.75 16.25 6.75H3.75C3.58424 6.75 3.42527 6.68415 3.30806 6.56694C3.19085 6.44973 3.125 6.29076 3.125 6.125C3.125 5.95924 3.19085 5.80027 3.30806 5.68306C3.42527 5.56585 3.58424 5.5 3.75 5.5H16.25Z"
        fill="#070707" />
</svg>