<svg width="16" height="16" viewBox="0 0 16 16" fill="none" xmlns="http://www.w3.org/2000/svg">
    <path
        d="M11.0006 6C11.2658 6 11.5201 5.89465 11.7077 5.70711C11.8952 5.51957 12.0006 5.26522 12.0006 5C12.0006 4.73479 11.8952 4.48043 11.7077 4.2929C11.5201 4.10536 11.2658 4 11.0006 4C10.7353 4 10.481 4.10536 10.2935 4.2929C10.1059 4.48043 10.0006 4.73479 10.0006 5C10.0006 5.26522 10.1059 5.51957 10.2935 5.70711C10.481 5.89465 10.7353 6 11.0006 6ZM2.58756 10.136C2.40138 9.95121 2.2536 9.73139 2.15276 9.48923C2.05192 9.24706 2 8.98733 2 8.725C2 8.46268 2.05192 8.20295 2.15276 7.96078C2.2536 7.71861 2.40138 7.4988 2.58756 7.314L7.32756 2.598C7.70251 2.22554 8.20906 2.01573 8.73756 2.014L11.9866 2C12.2512 1.99815 12.5136 2.04884 12.7586 2.14915C13.0035 2.24945 13.2261 2.39737 13.4134 2.58434C13.6007 2.7713 13.7491 2.99359 13.8499 3.23831C13.9507 3.48304 14.0019 3.74534 14.0006 4.01L13.9766 7.373C13.9723 7.89766 13.7609 8.39938 13.3886 8.769L8.71856 13.416C8.34167 13.7902 7.83214 14.0001 7.30106 14.0001C6.76999 14.0001 6.26046 13.7902 5.88356 13.416L2.58756 10.136ZM3.29656 8.02C3.20362 8.11238 3.12986 8.22223 3.07953 8.34322C3.0292 8.46421 3.00329 8.59396 3.00329 8.725C3.00329 8.85605 3.0292 8.9858 3.07953 9.10679C3.12986 9.22778 3.20362 9.33762 3.29656 9.43L6.59256 12.71C6.98456 13.1 7.61856 13.1 8.01056 12.71L12.6806 8.063C12.8664 7.87803 12.9717 7.62719 12.9736 7.365L12.9976 4.002C12.9981 3.86984 12.9724 3.73888 12.922 3.6167C12.8716 3.49452 12.7975 3.38354 12.704 3.29018C12.6104 3.19681 12.4993 3.12292 12.377 3.07277C12.2547 3.02262 12.1237 2.99721 11.9916 2.998L8.74156 3.011C8.47731 3.01187 8.22404 3.11677 8.03656 3.303L3.29656 8.02Z"
        fill="#070707" />
</svg>