<svg width="16" height="17" viewBox="0 0 16 17" fill="none" xmlns="http://www.w3.org/2000/svg">
    <path
        d="M7.77518 3.775L9.02518 2.525C9.3502 2.19998 9.73606 1.94216 10.1607 1.76626C10.5854 1.59036 11.0405 1.49982 11.5002 1.49982C11.9598 1.49982 12.415 1.59036 12.8396 1.76626C13.2643 1.94216 13.6502 2.19998 13.9752 2.525C14.3002 2.85002 14.558 3.23588 14.7339 3.66054C14.9098 4.0852 15.0004 4.54035 15.0004 5C15.0004 5.45965 14.9098 5.9148 14.7339 6.33946C14.558 6.76412 14.3002 7.14998 13.9752 7.475L11.4752 9.975C11.1502 10.3 10.7643 10.5579 10.3397 10.7338C9.91499 10.9097 9.45983 11.0003 9.00018 11.0003C8.54052 11.0003 8.08537 10.9097 7.6607 10.7338C7.23604 10.5579 6.85019 10.3 6.52518 9.975C6.39277 9.83274 6.32067 9.64469 6.32402 9.45037C6.32738 9.25606 6.40594 9.07061 6.54318 8.933C6.68078 8.79576 6.86623 8.7172 7.06055 8.71385C7.25486 8.71049 7.44292 8.78259 7.58518 8.915C7.77079 9.10119 7.99132 9.24892 8.23414 9.34972C8.47695 9.45052 8.73727 9.50241 9.00018 9.50241C9.26308 9.50241 9.5234 9.45052 9.76622 9.34972C10.009 9.24892 10.2296 9.10119 10.4152 8.915L12.9152 6.415C13.2722 6.03606 13.4676 5.53293 13.4598 5.01235C13.452 4.49176 13.2418 3.99468 12.8737 3.62653C12.5055 3.25838 12.0084 3.04813 11.4878 3.04038C10.9673 3.03263 10.4641 3.22798 10.0852 3.585L8.83518 4.835C8.69292 4.96741 8.50486 5.03951 8.31055 5.03616C8.11623 5.0328 7.93078 4.95425 7.79318 4.817C7.65593 4.6794 7.57738 4.49395 7.57402 4.29963C7.57067 4.10532 7.64277 3.91726 7.77518 3.775ZM3.08518 13.415C3.27079 13.6012 3.49132 13.7489 3.73414 13.8497C3.97695 13.9505 4.23727 14.0024 4.50018 14.0024C4.76308 14.0024 5.0234 13.9505 5.26622 13.8497C5.50903 13.7489 5.72957 13.6012 5.91518 13.415L7.16518 12.165C7.30744 12.0326 7.49549 11.9605 7.68981 11.9638C7.88413 11.9672 8.06957 12.0458 8.20718 12.183C8.34442 12.3206 8.42298 12.5061 8.42633 12.7004C8.42969 12.8947 8.35759 13.0827 8.22518 13.225L6.97518 14.475C6.65016 14.8 6.2643 15.0578 5.83964 15.2337C5.41498 15.4096 4.95983 15.5002 4.50018 15.5002C4.04053 15.5002 3.58538 15.4096 3.16072 15.2337C2.73606 15.0578 2.3502 14.8 2.02518 14.475C1.70016 14.15 1.44234 13.7641 1.26644 13.3395C1.09053 12.9148 1 12.4597 1 12C1 11.5404 1.09053 11.0852 1.26644 10.6605C1.44234 10.2359 1.70016 9.85002 2.02518 9.525L4.52518 7.025C4.85019 6.69996 5.23604 6.44212 5.6607 6.26621C6.08537 6.09029 6.54052 5.99975 7.00018 5.99975C7.45983 5.99975 7.91499 6.09029 8.33965 6.26621C8.76432 6.44212 9.15017 6.69996 9.47518 7.025C9.60759 7.16726 9.67969 7.35532 9.67633 7.54963C9.67298 7.74395 9.59442 7.9294 9.45718 8.067C9.31957 8.20425 9.13413 8.2828 8.93981 8.28616C8.74549 8.28952 8.55744 8.21741 8.41518 8.085C8.22957 7.89881 8.00903 7.75108 7.76622 7.65028C7.5234 7.54948 7.26308 7.4976 7.00018 7.4976C6.73727 7.4976 6.47695 7.54948 6.23414 7.65028C5.99132 7.75108 5.77079 7.89881 5.58518 8.085L3.08518 10.585C2.89899 10.7706 2.75126 10.9911 2.65046 11.234C2.54966 11.4768 2.49777 11.7371 2.49777 12C2.49777 12.2629 2.54966 12.5232 2.65046 12.766C2.75126 13.0089 2.89899 13.2294 3.08518 13.415Z"
        fill="#59ACFF" />
</svg>