<svg width="16" height="16" viewBox="0 0 16 16" fill="none" xmlns="http://www.w3.org/2000/svg">
    <path
        d="M3.33317 5.99996V14H0.666504V5.99996H3.33317ZM5.99984 14C5.64622 14 5.30708 13.8595 5.05703 13.6094C4.80698 13.3594 4.6665 13.0202 4.6665 12.6666V5.99996C4.6665 5.63329 4.81317 5.29996 5.05984 5.05996L9.4465 0.666626L10.1532 1.37329C10.3332 1.55329 10.4465 1.79996 10.4465 2.07329L10.4265 2.28663L9.79317 5.33329H13.9998C14.3535 5.33329 14.6926 5.47377 14.9426 5.72382C15.1927 5.97387 15.3332 6.313 15.3332 6.66663V7.99996C15.3332 8.17329 15.2998 8.33329 15.2398 8.48663L13.2265 13.1866C13.0265 13.6666 12.5532 14 11.9998 14H5.99984ZM5.99984 12.6666H12.0198L13.9998 7.99996V6.66663H8.13984L8.89317 3.11996L5.99984 6.01996V12.6666Z"
        fill="#A1A1A1" />
</svg>