<svg width="16" height="16" viewBox="0 0 16 16" fill="none" xmlns="http://www.w3.org/2000/svg">
    <path
        d="M5.33398 8.66667L8.15265 10.9213C8.28973 11.0308 8.46445 11.0819 8.63891 11.0634C8.81338 11.0449 8.97354 10.9584 9.08465 10.8227L14.6673 4"
        stroke="#2A85FF" stroke-width="1.33333" stroke-linecap="round" />
    <path fill-rule="evenodd" clip-rule="evenodd"
        d="M7.46033 8.15794L10.5163 4.42194C10.6251 4.28476 10.6755 4.11033 10.6567 3.9363C10.6379 3.76227 10.5514 3.60261 10.4159 3.49179C10.2804 3.38098 10.1068 3.3279 9.93247 3.34402C9.75817 3.36014 9.59721 3.44416 9.48433 3.57794L6.43566 7.30461L7.46033 8.15794ZM5.34899 10.7379L4.32433 9.88461L3.88899 10.4166L1.73366 8.79994C1.59221 8.69386 1.41441 8.64831 1.23938 8.67331C1.06435 8.69832 0.906415 8.79183 0.800328 8.93328C0.694242 9.07473 0.64869 9.25252 0.673695 9.42756C0.6987 9.60259 0.792213 9.76052 0.933662 9.86661L3.08899 11.4833C3.36414 11.6896 3.70836 11.7816 4.04974 11.7401C4.39113 11.6986 4.70328 11.5268 4.92099 11.2606L5.34899 10.7379Z"
        fill="#2A85FF" />
</svg>