<svg width="16" height="16" viewBox="0 0 16 16" fill="none" xmlns="http://www.w3.org/2000/svg">
<path d="M5.33398 8.66667L8.15265 10.9213C8.28973 11.0308 8.46445 11.0819 8.63891 11.0634C8.81338 11.0449 8.97354 10.9584 9.08465 10.8227L14.6673 4" stroke="#070707" stroke-width="1.33333" stroke-linecap="round"/>
<path fill-rule="evenodd" clip-rule="evenodd" d="M7.46033 8.15801L10.5163 4.422C10.6251 4.28482 10.6755 4.11039 10.6567 3.93636C10.6379 3.76233 10.5514 3.60267 10.4159 3.49186C10.2804 3.38104 10.1068 3.32796 9.93247 3.34408C9.75817 3.3602 9.59721 3.44422 9.48433 3.57801L6.43566 7.30467L7.46033 8.15801ZM5.34899 10.738L4.32433 9.88467L3.88899 10.4167L1.73366 8.8C1.59221 8.69392 1.41441 8.64837 1.23938 8.67337C1.06435 8.69838 0.906415 8.79189 0.800328 8.93334C0.694242 9.07479 0.64869 9.25258 0.673695 9.42762C0.6987 9.60265 0.792213 9.76058 0.933662 9.86667L3.08899 11.4833C3.36414 11.6896 3.70836 11.7817 4.04974 11.7402C4.39113 11.6987 4.70328 11.5269 4.92099 11.2607L5.34899 10.738Z" fill="#070707"/>
</svg>
