<svg width="12" height="44" viewBox="0 0 12 44" fill="none" xmlns="http://www.w3.org/2000/svg">
    <path
        d="M11 43.267H0.818182L0.818182 39.8267C0.818182 39.0279 0.962358 38.375 1.25071 37.8679C1.53575 37.3575 1.92188 36.9796 2.40909 36.7344C2.89631 36.4891 3.43987 36.3665 4.03977 36.3665C4.63968 36.3665 5.1849 36.4891 5.67543 36.7344C6.16596 36.9763 6.55705 37.3509 6.84872 37.858C7.13707 38.3651 7.28125 39.0147 7.28125 39.8068V42.2727H6.1875V39.8466C6.1875 39.2997 6.09304 38.8606 5.90412 38.5291C5.7152 38.1977 5.45999 37.9574 5.13849 37.8082C4.81368 37.6558 4.44744 37.5795 4.03977 37.5795C3.6321 37.5795 3.26752 37.6558 2.94602 37.8082C2.62453 37.9574 2.37263 38.1993 2.19034 38.5341C2.00473 38.8688 1.91193 39.313 1.91193 39.8665L1.91193 42.0341H11V43.267ZM11 34.5394H3.36364V33.3661H11V34.5394ZM2.09091 33.9428C2.09091 34.1715 2.01302 34.3687 1.85724 34.5344C1.70147 34.6969 1.5142 34.7781 1.29545 34.7781C1.0767 34.7781 0.889441 34.6969 0.733664 34.5344C0.577888 34.3687 0.5 34.1715 0.5 33.9428C0.5 33.7141 0.577888 33.5186 0.733664 33.3562C0.889441 33.1905 1.0767 33.1076 1.29545 33.1076C1.5142 33.1076 1.70147 33.1905 1.85724 33.3562C2.01302 33.5186 2.09091 33.7141 2.09091 33.9428ZM6.40625 30.0439H11V31.2172H3.36364V30.0836H4.55682V29.9842C4.16903 29.8052 3.85748 29.5334 3.62216 29.1689C3.38352 28.8043 3.2642 28.3336 3.2642 27.7569C3.2642 27.2399 3.37027 26.7875 3.58239 26.3997C3.79119 26.0119 4.10938 25.7103 4.53693 25.4949C4.96117 25.2794 5.49811 25.1717 6.14773 25.1717L11 25.1717V26.345L6.22727 26.345C5.62737 26.345 5.16004 26.5008 4.82528 26.8123C4.48722 27.1239 4.31818 27.5514 4.31818 28.095C4.31818 28.4695 4.39938 28.8043 4.56179 29.0993C4.72419 29.3909 4.96117 29.6213 5.27273 29.7903C5.58428 29.9593 5.96212 30.0439 6.40625 30.0439ZM6.40625 21.8544L11 21.8544V23.0277L3.36364 23.0277V21.8942H4.55682V21.7947C4.16903 21.6158 3.85748 21.344 3.62216 20.9794C3.38352 20.6148 3.2642 20.1442 3.2642 19.5675C3.2642 19.0504 3.37027 18.598 3.58239 18.2102C3.79119 17.8224 4.10938 17.5208 4.53693 17.3054C4.96117 17.09 5.49811 16.9822 6.14773 16.9822L11 16.9822V18.1555L6.22727 18.1555C5.62737 18.1555 5.16004 18.3113 4.82528 18.6229C4.48722 18.9344 4.31818 19.362 4.31818 19.9055C4.31818 20.2801 4.39938 20.6148 4.56179 20.9098C4.72419 21.2015 4.96117 21.4318 5.27273 21.6009C5.58428 21.7699 5.96212 21.8544 6.40625 21.8544ZM11.1591 11.6365C11.1591 12.3723 10.9967 13.007 10.6719 13.5407C10.3438 14.071 9.88636 14.4803 9.29972 14.7686C8.70975 15.0537 8.02367 15.1962 7.24148 15.1962C6.45928 15.1962 5.76989 15.0537 5.1733 14.7686C4.57339 14.4803 4.10606 14.0792 3.77131 13.5655C3.43324 13.0485 3.2642 12.4453 3.2642 11.7559C3.2642 11.3581 3.33049 10.9654 3.46307 10.5776C3.59564 10.1898 3.81108 9.83682 4.10938 9.51864C4.40436 9.20046 4.79545 8.94691 5.28267 8.75799C5.76989 8.56907 6.36979 8.47461 7.08239 8.47461H7.57955L7.57955 14.361L6.56534 14.361L6.56534 9.66779C6.13447 9.66779 5.75 9.75397 5.41193 9.92631C5.07386 10.0953 4.80705 10.3373 4.61151 10.6522C4.41596 10.9637 4.31818 11.3316 4.31818 11.7559C4.31818 12.2232 4.43419 12.6275 4.66619 12.9689C4.89489 13.307 5.19318 13.5672 5.56108 13.7495C5.92898 13.9318 6.32339 14.0229 6.74432 14.0229H7.42045C7.99716 14.0229 8.48603 13.9235 8.88707 13.7246C9.2848 13.5224 9.58807 13.2424 9.79688 12.8844C10.0024 12.5265 10.1051 12.1105 10.1051 11.6365C10.1051 11.3283 10.062 11.0499 9.97585 10.8013C9.88636 10.5494 9.75379 10.3323 9.57813 10.15C9.39915 9.96774 9.17708 9.82688 8.91193 9.72745L9.23011 8.59393C9.61458 8.71325 9.95265 8.91377 10.2443 9.19549C10.5327 9.47721 10.758 9.82522 10.9205 10.2395C11.0795 10.6538 11.1591 11.1195 11.1591 11.6365ZM11.1591 3.80629C11.1591 4.44265 10.9983 5.00444 10.6768 5.49165C10.352 5.97887 9.89465 6.36003 9.30469 6.63512C8.71141 6.91022 8.01042 7.04776 7.2017 7.04776C6.39962 7.04776 5.7036 6.91022 5.11364 6.63512C4.52367 6.36003 4.06794 5.97721 3.74645 5.48668C3.42495 4.99615 3.2642 4.42939 3.2642 3.7864C3.2642 3.28924 3.34706 2.89648 3.51278 2.60813C3.67519 2.31647 3.8608 2.0944 4.0696 1.94194C4.27509 1.78616 4.44413 1.66519 4.5767 1.57901V1.47958H0.818182V0.306285H11V1.43981H9.8267V1.57901C9.96591 1.66519 10.1416 1.78782 10.3537 1.94691C10.5625 2.106 10.7498 2.33304 10.9155 2.62802C11.0779 2.923 11.1591 3.31576 11.1591 3.80629ZM10.1051 3.64719C10.1051 3.17655 9.98248 2.77882 9.73722 2.45401C9.48864 2.1292 9.1456 1.88228 8.7081 1.71325C8.26728 1.54421 7.75852 1.45969 7.18182 1.45969C6.61174 1.45969 6.11293 1.54255 5.68537 1.70827C5.2545 1.87399 4.91974 2.11926 4.68111 2.44407C4.43916 2.76888 4.31818 3.16992 4.31818 3.64719C4.31818 4.14435 4.44579 4.55865 4.70099 4.89009C4.95289 5.21822 5.29593 5.46514 5.73011 5.63086C6.16098 5.79326 6.64489 5.87447 7.18182 5.87447C7.72538 5.87447 8.21922 5.79161 8.66335 5.62589C9.10417 5.45685 9.45549 5.20827 9.71733 4.88015C9.97585 4.54871 10.1051 4.13772 10.1051 3.64719Z"
        fill="#070707" />
</svg>