<svg width="14" height="14" viewBox="0 0 14 14" fill="none" xmlns="http://www.w3.org/2000/svg">
    <path
        d="M6.06683 10.0666L10.7668 5.36665L9.8335 4.43331L6.06683 8.19998L4.16683 6.29998L3.2335 7.23331L6.06683 10.0666ZM7.00016 13.6666C6.07794 13.6666 5.21127 13.4915 4.40016 13.1413C3.58905 12.7911 2.8835 12.3162 2.2835 11.7166C1.6835 11.1166 1.20861 10.4111 0.858829 9.59998C0.509052 8.78887 0.333941 7.9222 0.333496 6.99998C0.333496 6.07776 0.508607 5.21109 0.858829 4.39998C1.20905 3.58887 1.68394 2.88331 2.2835 2.28331C2.8835 1.68331 3.58905 1.20842 4.40016 0.858646C5.21127 0.508869 6.07794 0.333757 7.00016 0.333313C7.92239 0.333313 8.78905 0.508424 9.60016 0.858646C10.4113 1.20887 11.1168 1.68376 11.7168 2.28331C12.3168 2.88331 12.7919 3.58887 13.1422 4.39998C13.4924 5.21109 13.6673 6.07776 13.6668 6.99998C13.6668 7.9222 13.4917 8.78887 13.1415 9.59998C12.7913 10.4111 12.3164 11.1166 11.7168 11.7166C11.1168 12.3166 10.4113 12.7918 9.60016 13.142C8.78905 13.4922 7.92239 13.6671 7.00016 13.6666ZM7.00016 12.3333C8.48905 12.3333 9.75016 11.8166 10.7835 10.7833C11.8168 9.74998 12.3335 8.48887 12.3335 6.99998C12.3335 5.51109 11.8168 4.24998 10.7835 3.21665C9.75016 2.18331 8.48905 1.66665 7.00016 1.66665C5.51127 1.66665 4.25016 2.18331 3.21683 3.21665C2.1835 4.24998 1.66683 5.51109 1.66683 6.99998C1.66683 8.48887 2.1835 9.74998 3.21683 10.7833C4.25016 11.8166 5.51127 12.3333 7.00016 12.3333Z"
        fill="#070707" />
</svg>