<svg width="15" height="15" viewBox="0 0 15 15" fill="none" xmlns="http://www.w3.org/2000/svg">
    <path
        d="M1.66683 3.5742L2.4135 2.83336L12.1668 12.5867L11.426 13.3334L9.62933 11.5367C8.9585 11.7584 8.24683 11.875 7.50016 11.875C4.5835 11.875 2.09266 10.0609 1.0835 7.50003C1.486 6.47336 2.12766 5.5692 2.94433 4.8517L1.66683 3.5742ZM7.50016 5.75003C7.96429 5.75003 8.40941 5.9344 8.7376 6.26259C9.06579 6.59078 9.25016 7.0359 9.25016 7.50003C9.25046 7.69869 9.21692 7.89596 9.151 8.08336L6.91683 5.8492C7.10424 5.78327 7.3015 5.74973 7.50016 5.75003ZM7.50016 3.12503C10.4168 3.12503 12.9077 4.9392 13.9168 7.50003C13.4407 8.7094 12.6317 9.75911 11.5835 10.5275L10.7552 9.69336C11.5618 9.13533 12.2125 8.38031 12.6452 7.50003C12.1736 6.53749 11.4414 5.72656 10.5319 5.15941C9.62239 4.59225 8.57202 4.29163 7.50016 4.2917C6.86433 4.2917 6.24016 4.3967 5.65683 4.58336L4.7585 3.69086C5.5985 3.3292 6.526 3.12503 7.50016 3.12503ZM2.35516 7.50003C2.82675 8.46256 3.55891 9.2735 4.46842 9.84065C5.37793 10.4078 6.42831 10.7084 7.50016 10.7084C7.90266 10.7084 8.29933 10.6675 8.66683 10.5859L7.33683 9.25003C6.93092 9.20652 6.55214 9.02537 6.26348 8.73671C5.97482 8.44805 5.79367 8.06927 5.75016 7.66336L3.76683 5.6742C3.18933 6.17003 2.70516 6.78836 2.35516 7.50003Z"
        fill="#070707" />
</svg>