<svg width="9" height="18" viewBox="0 0 9 18" fill="none" xmlns="http://www.w3.org/2000/svg">
    <path
        d="M7.41982 9L0.343149 1.7275C0.284885 1.6689 0.238824 1.59932 0.207629 1.52279C0.176434 1.44626 0.160724 1.36431 0.16141 1.28167C0.162097 1.19904 0.179166 1.11735 0.211628 1.04136C0.24409 0.965359 0.291302 0.896554 0.350531 0.838923C0.40976 0.781292 0.47983 0.735979 0.556686 0.705606C0.633543 0.675234 0.715662 0.660405 0.798287 0.661978C0.880913 0.663552 0.962405 0.681495 1.03805 0.714771C1.1137 0.748047 1.18199 0.795994 1.23898 0.855838L8.73898 8.56417C8.8525 8.68085 8.91602 8.83721 8.91602 9C8.91602 9.16279 8.8525 9.31916 8.73898 9.43584L1.23898 17.1442C1.18199 17.204 1.1137 17.252 1.03805 17.2852C0.962405 17.3185 0.880913 17.3365 0.798287 17.338C0.715662 17.3396 0.633543 17.3248 0.556686 17.2944C0.47983 17.264 0.40976 17.2187 0.350531 17.1611C0.291302 17.1035 0.24409 17.0346 0.211628 16.9587C0.179166 16.8827 0.162097 16.801 0.16141 16.7183C0.160724 16.6357 0.176434 16.5537 0.207629 16.4772C0.238824 16.4007 0.284885 16.3311 0.343149 16.2725L7.41982 9Z"
        fill="white" />
</svg>