<svg width="24" height="24" viewBox="0 0 24 24" fill="none" xmlns="http://www.w3.org/2000/svg">
<path d="M8.66667 12.5C8.66667 12.8978 8.52619 13.2794 8.27614 13.5607C8.02609 13.842 7.68696 14 7.33333 14C6.97971 14 6.64057 13.842 6.39052 13.5607C6.14048 13.2794 6 12.8978 6 12.5C6 12.1022 6.14048 11.7206 6.39052 11.4393C6.64057 11.158 6.97971 11 7.33333 11C7.68696 11 8.02609 11.158 8.27614 11.4393C8.52619 11.7206 8.66667 12.1022 8.66667 12.5ZM13.3333 12.5C13.3333 12.8978 13.1929 13.2794 12.9428 13.5607C12.6928 13.842 12.3536 14 12 14C11.6464 14 11.3072 13.842 11.0572 13.5607C10.8071 13.2794 10.6667 12.8978 10.6667 12.5C10.6667 12.1022 10.8071 11.7206 11.0572 11.4393C11.3072 11.158 11.6464 11 12 11C12.3536 11 12.6928 11.158 12.9428 11.4393C13.1929 11.7206 13.3333 12.1022 13.3333 12.5ZM18 12.5C18 12.8978 17.8595 13.2794 17.6095 13.5607C17.3594 13.842 17.0203 14 16.6667 14C16.313 14 15.9739 13.842 15.7239 13.5607C15.4738 13.2794 15.3333 12.8978 15.3333 12.5C15.3333 12.1022 15.4738 11.7206 15.7239 11.4393C15.9739 11.158 16.313 11 16.6667 11C17.0203 11 17.3594 11.158 17.6095 11.4393C17.8595 11.7206 18 12.1022 18 12.5Z" fill="#2A85FF"/>
</svg>
