<svg width="14" height="14" viewBox="0 0 14 14" fill="none" xmlns="http://www.w3.org/2000/svg">
<path d="M13.0675 12.1829C13.1256 12.2409 13.1717 12.3099 13.2031 12.3857C13.2345 12.4616 13.2507 12.5429 13.2507 12.625C13.2507 12.7072 13.2345 12.7885 13.2031 12.8644C13.1717 12.9402 13.1256 13.0092 13.0675 13.0672C13.0095 13.1253 12.9405 13.1714 12.8647 13.2028C12.7888 13.2342 12.7075 13.2504 12.6253 13.2504C12.5432 13.2504 12.4619 13.2342 12.386 13.2028C12.3102 13.1714 12.2412 13.1253 12.1832 13.0672L7.00035 7.88364L1.81753 13.0672C1.70026 13.1845 1.5412 13.2504 1.37535 13.2504C1.2095 13.2504 1.05044 13.1845 0.93316 13.0672C0.815885 12.95 0.75 12.7909 0.75 12.625C0.75 12.4592 0.815885 12.3001 0.93316 12.1829L6.11675 7.00004L0.93316 1.81723C0.815885 1.69995 0.75 1.54089 0.75 1.37504C0.75 1.20919 0.815885 1.05013 0.93316 0.932855C1.05044 0.815579 1.2095 0.749695 1.37535 0.749695C1.5412 0.749695 1.70026 0.815579 1.81753 0.932855L7.00035 6.11645L12.1832 0.932855C12.3004 0.815579 12.4595 0.749695 12.6253 0.749695C12.7912 0.749695 12.9503 0.815579 13.0675 0.932855C13.1848 1.05013 13.2507 1.20919 13.2507 1.37504C13.2507 1.54089 13.1848 1.69995 13.0675 1.81723L7.88394 7.00004L13.0675 12.1829Z" fill="#070707" stroke="black" stroke-width="0.625"/>
</svg>
