<svg width="14" height="14" viewBox="0 0 14 14" fill="none" xmlns="http://www.w3.org/2000/svg">
    <path
        d="M5 6.5C5.26522 6.5 5.51957 6.39464 5.70711 6.20711C5.89464 6.01957 6 5.76522 6 5.5C6 5.23478 5.89464 4.98043 5.70711 4.79289C5.51957 4.60536 5.26522 4.5 5 4.5C4.73478 4.5 4.48043 4.60536 4.29289 4.79289C4.10536 4.98043 4 5.23478 4 5.5C4 5.76522 4.10536 6.01957 4.29289 6.20711C4.48043 6.39464 4.73478 6.5 5 6.5ZM10 5.5C10 5.76522 9.89464 6.01957 9.70711 6.20711C9.51957 6.39464 9.26522 6.5 9 6.5C8.73478 6.5 8.48043 6.39464 8.29289 6.20711C8.10536 6.01957 8 5.76522 8 5.5C8 5.23478 8.10536 4.98043 8.29289 4.79289C8.48043 4.60536 8.73478 4.5 9 4.5C9.26522 4.5 9.51957 4.60536 9.70711 4.79289C9.89464 4.98043 10 5.23478 10 5.5ZM3.7765 8.553C3.89448 8.49401 4.031 8.48403 4.1563 8.52524C4.28161 8.56644 4.38556 8.6555 4.4455 8.773L4.447 8.776L4.464 8.805C4.4815 8.8335 4.5105 8.878 4.5525 8.9345C4.637 9.047 4.7725 9.2025 4.9685 9.3595C5.355 9.6685 5.9965 10 7 10C8.0035 10 8.645 9.6685 9.0315 9.36C9.228 9.2025 9.3635 9.047 9.4475 8.9345C9.48574 8.88378 9.52097 8.83085 9.553 8.776L9.555 8.7725C9.61532 8.65504 9.71966 8.56621 9.84523 8.5254C9.97081 8.48459 10.1074 8.49511 10.2253 8.55466C10.3431 8.61421 10.4326 8.71796 10.4743 8.84327C10.5159 8.96858 10.5063 9.10526 10.4475 9.2235L10.4465 9.225V9.226L10.4445 9.229L10.4405 9.2365C10.425 9.2663 10.4083 9.29549 10.3905 9.324C10.3466 9.39639 10.2991 9.46648 10.248 9.534C10.0769 9.76021 9.878 9.96397 9.656 10.1405C9.105 10.5815 8.2465 11 7 11C5.7535 11 4.895 10.5815 4.344 10.14C4.12224 9.96375 3.92352 9.76032 3.7525 9.5345C3.6815 9.43964 3.61702 9.34008 3.5595 9.2365L3.5555 9.229L3.554 9.226L3.5535 9.2245L3.553 9.2235C3.49379 9.10494 3.48407 8.96772 3.52598 8.84199C3.56789 8.71627 3.65799 8.61232 3.7765 8.553ZM7 0C3.134 0 0 3.134 0 7C0 10.866 3.134 14 7 14C10.866 14 14 10.866 14 7C14 3.134 10.866 0 7 0ZM1 7C1 3.6865 3.6865 1 7 1C10.3135 1 13 3.6865 13 7C13 10.3135 10.3135 13 7 13C3.6865 13 1 10.3135 1 7Z"
        fill="#A1A1A1" />
</svg>