<svg width="14" height="14" viewBox="0 0 14 14" fill="none" xmlns="http://www.w3.org/2000/svg">
    <path
        d="M7.85996 5.19338L5.19329 7.86004C5.13081 7.92202 5.08121 7.99575 5.04737 8.07699C5.01352 8.15823 4.99609 8.24537 4.99609 8.33338C4.99609 8.42138 5.01352 8.50852 5.04737 8.58976C5.08121 8.671 5.13081 8.74473 5.19329 8.80671C5.25527 8.86919 5.329 8.91879 5.41024 8.95264C5.49148 8.98648 5.57862 9.00391 5.66663 9.00391C5.75463 9.00391 5.84177 8.98648 5.92301 8.95264C6.00425 8.91879 6.07798 8.86919 6.13996 8.80671L8.80663 6.14004C8.93216 6.01451 9.00269 5.84424 9.00269 5.66671C9.00269 5.48917 8.93216 5.31891 8.80663 5.19338C8.68109 5.06784 8.51083 4.99731 8.33329 4.99731C8.15576 4.99731 7.9855 5.06784 7.85996 5.19338Z"
        fill="#A1A1A1" />
    <path
        d="M7.18669 10.6001L6.33335 11.4468C5.85431 11.9404 5.21031 12.2404 4.52421 12.2896C3.83811 12.3388 3.15791 12.1337 2.61335 11.7134C2.32553 11.4763 2.09066 11.1814 1.92391 10.8478C1.75716 10.5142 1.66224 10.1493 1.64528 9.77675C1.62831 9.40419 1.68969 9.03221 1.82543 8.68485C1.96118 8.33748 2.16828 8.02245 2.43335 7.76011L3.38002 6.80677C3.44251 6.7448 3.4921 6.67106 3.52595 6.58982C3.55979 6.50858 3.57722 6.42145 3.57722 6.33344C3.57722 6.24543 3.55979 6.15829 3.52595 6.07705C3.4921 5.99582 3.44251 5.92208 3.38002 5.86011C3.31805 5.79762 3.24431 5.74802 3.16307 5.71418C3.08183 5.68033 2.9947 5.66291 2.90669 5.66291C2.81868 5.66291 2.73154 5.68033 2.6503 5.71418C2.56906 5.74802 2.49533 5.79762 2.43335 5.86011L1.58669 6.71344C0.873459 7.40411 0.435078 8.33012 0.352932 9.31955C0.270786 10.309 0.550457 11.2946 1.14002 12.0934C1.48994 12.5474 1.93245 12.9217 2.43815 13.1915C2.94385 13.4613 3.50116 13.6203 4.07307 13.6582C4.64499 13.696 5.2184 13.6117 5.75523 13.4109C6.29206 13.2101 6.78002 12.8973 7.18669 12.4934L8.13335 11.5468C8.25889 11.4212 8.32942 11.251 8.32942 11.0734C8.32942 10.8959 8.25889 10.7256 8.13335 10.6001C8.00782 10.4746 7.83755 10.404 7.66002 10.404C7.48249 10.404 7.31222 10.4746 7.18669 10.6001ZM12.1067 1.14677C11.3024 0.551083 10.3087 0.268565 9.31125 0.35199C8.31383 0.435415 7.38089 0.879077 6.68669 1.60011L5.96669 2.33344C5.88439 2.39326 5.81558 2.4697 5.7647 2.55781C5.71382 2.64592 5.68201 2.74372 5.67132 2.8449C5.66064 2.94608 5.67132 3.04838 5.70268 3.14517C5.73404 3.24195 5.78537 3.33108 5.85335 3.40677C5.91533 3.46926 5.98906 3.51885 6.0703 3.5527C6.15154 3.58655 6.23868 3.60397 6.32669 3.60397C6.41469 3.60397 6.50183 3.58655 6.58307 3.5527C6.66431 3.51885 6.73805 3.46926 6.80002 3.40677L7.66669 2.53344C8.14309 2.03765 8.78631 1.736 9.47213 1.68675C10.1579 1.6375 10.8377 1.84414 11.38 2.26677C11.67 2.50397 11.9067 2.79961 12.0748 3.13442C12.2429 3.46922 12.3385 3.83568 12.3555 4.20993C12.3725 4.58417 12.3104 4.95778 12.1734 5.30644C12.0363 5.65509 11.8273 5.97095 11.56 6.23344L10.6134 7.18677C10.5509 7.24875 10.5013 7.32248 10.4674 7.40372C10.4336 7.48496 10.4162 7.5721 10.4162 7.66011C10.4162 7.74811 10.4336 7.83525 10.4674 7.91649C10.5013 7.99773 10.5509 8.07146 10.6134 8.13344C10.6753 8.19593 10.7491 8.24552 10.8303 8.27937C10.9115 8.31321 10.9987 8.33064 11.0867 8.33064C11.1747 8.33064 11.2618 8.31321 11.3431 8.27937C11.4243 8.24552 11.498 8.19593 11.56 8.13344L12.5067 7.18677C12.9095 6.78018 13.2212 6.29264 13.4214 5.75647C13.6215 5.22029 13.7055 4.64771 13.6677 4.07664C13.6298 3.50558 13.4711 2.94907 13.202 2.44397C12.9329 1.93887 12.5596 1.49671 12.1067 1.14677Z"
        fill="#A1A1A1" />
</svg>