<svg width="14" height="16" viewBox="0 0 14 16" fill="none" xmlns="http://www.w3.org/2000/svg">
    <path
        d="M7.01358 2.18757C7.78112 1.4201 8.8221 0.988967 9.90751 0.989014C10.9929 0.989061 12.0339 1.42028 12.8013 2.18782C13.5688 2.95536 13.9999 3.99633 13.9999 5.08175C13.9998 6.16716 13.5686 7.2081 12.8011 7.97557L6.52958 14.2466C6.29558 14.4866 6.01625 14.6778 5.70779 14.809C5.39933 14.9402 5.06788 15.0089 4.73267 15.011C4.39747 15.0131 4.06518 14.9487 3.75507 14.8214C3.44497 14.6941 3.16323 14.5065 2.9262 14.2695C2.68917 14.0324 2.50157 13.7507 2.37427 13.4406C2.24697 13.1305 2.18252 12.7982 2.18465 12.463C2.18678 12.1278 2.25544 11.7963 2.38667 11.4879C2.51789 11.1794 2.70906 10.9001 2.94908 10.6661L8.51908 5.09507C8.63631 4.97778 8.79533 4.91186 8.96116 4.91181C9.12699 4.91176 9.28604 4.9776 9.40333 5.09482C9.52063 5.21205 9.58655 5.37107 9.58659 5.53689C9.58664 5.70272 9.52081 5.86178 9.40358 5.97907L3.83208 11.5491C3.71301 11.6681 3.61855 11.8095 3.55411 11.9651C3.48966 12.1207 3.45649 12.2874 3.45649 12.4558C3.45649 12.7959 3.5916 13.1221 3.83208 13.3626C4.07257 13.6031 4.39874 13.7382 4.73883 13.7382C5.07893 13.7382 5.4051 13.6031 5.64558 13.3626L11.9171 7.09107C12.181 6.82711 12.3904 6.51375 12.5333 6.16888C12.6761 5.824 12.7497 5.45436 12.7497 5.08107C12.7497 4.70778 12.6761 4.33814 12.5333 3.99327C12.3904 3.64839 12.181 3.33503 11.9171 3.07107C11.6531 2.80711 11.3398 2.59773 10.9949 2.45488C10.65 2.31203 10.2804 2.2385 9.90708 2.2385C9.53379 2.2385 9.16416 2.31203 8.81928 2.45488C8.4744 2.59773 8.16104 2.80711 7.89708 3.07107L1.06708 9.90257C0.949857 10.0198 0.790865 10.0857 0.625082 10.0857C0.4593 10.0857 0.300308 10.0198 0.183082 9.90257C0.0658568 9.78535 0 9.62635 0 9.46057C0 9.29479 0.0658568 9.1358 0.183082 9.01857L7.01358 2.18757Z"
        fill="#070707" />
</svg>