<svg width="14" height="16" viewBox="0 0 14 16" fill="none" xmlns="http://www.w3.org/2000/svg">
    <path
        d="M7.01358 2.18754C7.78112 1.42007 8.8221 0.988936 9.90751 0.988983C10.9929 0.98903 12.0339 1.42025 12.8013 2.18779C13.5688 2.95533 13.9999 3.9963 13.9999 5.08172C13.9998 6.16713 13.5686 7.20807 12.8011 7.97554L6.52958 14.2465C6.29558 14.4866 6.01625 14.6777 5.70779 14.809C5.39933 14.9402 5.06788 15.0088 4.73267 15.011C4.39747 15.0131 4.06518 14.9487 3.75507 14.8214C3.44497 14.6941 3.16323 14.5065 2.9262 14.2694C2.68917 14.0324 2.50157 13.7507 2.37427 13.4405C2.24697 13.1304 2.18252 12.7982 2.18465 12.4629C2.18678 12.1277 2.25544 11.7963 2.38667 11.4878C2.51789 11.1794 2.70906 10.9 2.94908 10.666L8.51908 5.09504C8.63631 4.97775 8.79533 4.91183 8.96116 4.91178C9.12699 4.91173 9.28604 4.97756 9.40333 5.09479C9.52063 5.21202 9.58655 5.37103 9.58659 5.53686C9.58664 5.70269 9.52081 5.86175 9.40358 5.97904L3.83208 11.549C3.71301 11.6681 3.61855 11.8095 3.55411 11.9651C3.48966 12.1206 3.45649 12.2874 3.45649 12.4558C3.45649 12.7959 3.5916 13.1221 3.83208 13.3625C4.07257 13.603 4.39874 13.7381 4.73883 13.7381C5.07893 13.7381 5.4051 13.603 5.64558 13.3625L11.9171 7.09104C12.181 6.82708 12.3904 6.51372 12.5333 6.16884C12.6761 5.82397 12.7497 5.45433 12.7497 5.08104C12.7497 4.70775 12.6761 4.33811 12.5333 3.99324C12.3904 3.64836 12.181 3.335 11.9171 3.07104C11.6531 2.80708 11.3398 2.5977 10.9949 2.45485C10.65 2.312 10.2804 2.23847 9.90708 2.23847C9.53379 2.23847 9.16416 2.312 8.81928 2.45485C8.4744 2.5977 8.16104 2.80708 7.89708 3.07104L1.06708 9.90254C0.949857 10.0198 0.790865 10.0856 0.625082 10.0856C0.4593 10.0856 0.300308 10.0198 0.183082 9.90254C0.0658568 9.78531 0 9.62632 0 9.46054C0 9.29476 0.0658568 9.13577 0.183082 9.01854L7.01358 2.18754Z"
        fill="#A1A1A1" />
</svg>