<svg width="28" height="28" viewBox="0 0 6 6" fill="none" xmlns="http://www.w3.org/2000/svg">
    <mask id="mask0_10886_17456" style="mask-type:luminance" maskUnits="userSpaceOnUse" x="0" y="0" width="6"
        height="6">
        <path d="M0 0H5.15985V5.16016H0V0Z" fill="white" />
    </mask>
    <g mask="url(#mask0_10886_17456)">
        <mask id="mask1_10886_17456" style="mask-type:luminance" maskUnits="userSpaceOnUse" x="0" y="0" width="6"
            height="6">
            <path
                d="M0.435748 0H4.7241C4.83984 0 4.95058 0.0459835 5.03222 0.127628C5.11418 0.209272 5.15985 0.32032 5.15985 0.435748V4.72441C5.15985 4.83984 5.11418 4.95089 5.03222 5.03253C4.95058 5.11418 4.83984 5.16016 4.7241 5.16016H0.435748C0.320007 5.16016 0.209272 5.11418 0.127628 5.03253C0.0456707 4.95089 0 4.83984 0 4.72441V0.435748C0 0.32032 0.0456707 0.209272 0.127628 0.127628C0.209272 0.0459835 0.320007 0 0.435748 0Z"
                fill="white" />
        </mask>
        <g mask="url(#mask1_10886_17456)">
            <path d="M0 0H5.15985V5.16016H0V0Z" fill="#FAD02C" />
        </g>
    </g>
    <mask id="mask2_10886_17456" style="mask-type:luminance" maskUnits="userSpaceOnUse" x="0" y="0" width="5"
        height="5">
        <path d="M0.733887 0.749512H4.41757V4.41943H0.733887V0.749512Z" fill="white" />
    </mask>
    <g mask="url(#mask2_10886_17456)">
        <path
            d="M2.0987 1.84132C2.24572 1.9483 2.38805 1.88886 2.41558 1.70931L2.53539 0.932283C2.56292 0.753041 2.60796 0.753041 2.63549 0.932283L2.75498 1.70931C2.78282 1.88886 2.92515 1.94799 3.07186 1.84132L3.74785 1.34989C3.89456 1.24322 3.92709 1.27606 3.82042 1.42277L3.32899 2.09845C3.22232 2.24516 3.28145 2.3878 3.461 2.41533L4.23803 2.53482C4.41727 2.56235 4.41727 2.60771 4.23803 2.63524L3.461 2.75473C3.28145 2.78226 3.22232 2.9249 3.32899 3.07161L3.82042 3.7476C3.92709 3.89399 3.89456 3.92684 3.74785 3.82017L3.07186 3.32874C2.92515 3.22176 2.78282 3.28119 2.75498 3.46044L2.63549 4.23778C2.60796 4.41702 2.56292 4.41702 2.53539 4.23778L2.41558 3.46044C2.38805 3.28119 2.24541 3.22176 2.0987 3.32874L1.42303 3.82017C1.27632 3.92684 1.2491 3.89837 1.36297 3.7573L1.92196 3.06191C2.03583 2.92052 1.98171 2.78445 1.80184 2.75974L0.916268 2.63743C0.736714 2.61271 0.736088 2.56923 0.91533 2.54108L1.70987 2.41627C1.88912 2.38811 1.94855 2.24516 1.84188 2.09845L1.35014 1.42277C1.24347 1.27606 1.27632 1.24322 1.42303 1.34989L2.0987 1.84132Z"
            fill="white" />
    </g>
</svg>