<svg xmlns="http://www.w3.org/2000/svg" xmlns:xlink="http://www.w3.org/1999/xlink" width="100" zoomAndPan="magnify"
    viewBox="0 0 249.75 66" height="40" preserveAspectRatio="xMidYMid meet" version="1.0">
    <defs>
        <g />
        <clipPath id="2c36a5cfde">
            <path d="M 0 0.03125 L 249.5 0.03125 L 249.5 65.964844 L 0 65.964844 Z M 0 0.03125 " clip-rule="nonzero" />
        </clipPath>
        <clipPath id="a28cc27b56">
            <path
                d="M 7.835938 0.78125 L 72.269531 0.78125 L 72.269531 65.21875 L 7.835938 65.21875 Z M 7.835938 0.78125 "
                clip-rule="nonzero" />
        </clipPath>
        <clipPath id="71d42c6b74">
            <path
                d="M 13.277344 0.78125 L 66.828125 0.78125 C 68.273438 0.78125 69.65625 1.355469 70.675781 2.375 C 71.699219 3.394531 72.269531 4.78125 72.269531 6.222656 L 72.269531 59.777344 C 72.269531 61.21875 71.699219 62.605469 70.675781 63.625 C 69.65625 64.644531 68.273438 65.21875 66.828125 65.21875 L 13.277344 65.21875 C 11.832031 65.21875 10.449219 64.644531 9.429688 63.625 C 8.40625 62.605469 7.835938 61.21875 7.835938 59.777344 L 7.835938 6.222656 C 7.835938 4.78125 8.40625 3.394531 9.429688 2.375 C 10.449219 1.355469 11.832031 0.78125 13.277344 0.78125 Z M 13.277344 0.78125 "
                clip-rule="nonzero" />
        </clipPath>
        <clipPath id="4fd6141743">
            <path d="M 17 10.140625 L 63 10.140625 L 63 55.96875 L 17 55.96875 Z M 17 10.140625 " clip-rule="nonzero" />
        </clipPath>
    </defs>
    <g clip-path="url(#2c36a5cfde)">
        <path fill="transparent" d="M 0 0.03125 L 249.5 0.03125 L 249.5 65.96875 L 0 65.96875 Z M 0 0.03125 "
            fill-opacity="1" fill-rule="nonzero" />
        <path fill="transparent" d="M 0 0.03125 L 249.5 0.03125 L 249.5 65.96875 L 0 65.96875 Z M 0 0.03125 "
            fill-opacity="1" fill-rule="nonzero" />
    </g>
    <g clip-path="url(#a28cc27b56)">
        <g clip-path="url(#71d42c6b74)">
            <path fill="#fad02c"
                d="M 7.835938 0.78125 L 72.269531 0.78125 L 72.269531 65.21875 L 7.835938 65.21875 Z M 7.835938 0.78125 "
                fill-opacity="1" fill-rule="nonzero" />
        </g>
    </g>
    <g clip-path="url(#4fd6141743)">
        <path fill="#ffffff"
            d="M 34.042969 23.777344 C 35.878906 25.113281 37.65625 24.371094 38 22.128906 L 39.496094 12.425781 C 39.839844 10.1875 40.402344 10.1875 40.746094 12.425781 L 42.238281 22.128906 C 42.585938 24.371094 44.363281 25.109375 46.195312 23.777344 L 54.636719 17.640625 C 56.46875 16.308594 56.875 16.71875 55.542969 18.550781 L 49.40625 26.988281 C 48.074219 28.820312 48.8125 30.601562 51.054688 30.945312 L 60.757812 32.4375 C 62.996094 32.78125 62.996094 33.347656 60.757812 33.691406 L 51.054688 35.183594 C 48.8125 35.527344 48.074219 37.308594 49.40625 39.140625 L 55.542969 47.582031 C 56.875 49.410156 56.46875 49.820312 54.636719 48.488281 L 46.195312 42.351562 C 44.363281 41.015625 42.585938 41.757812 42.238281 43.996094 L 40.746094 53.703125 C 40.402344 55.941406 39.839844 55.941406 39.496094 53.703125 L 38 43.996094 C 37.65625 41.757812 35.875 41.015625 34.042969 42.351562 L 25.605469 48.488281 C 23.773438 49.820312 23.433594 49.464844 24.855469 47.703125 L 31.835938 39.019531 C 33.257812 37.253906 32.582031 35.554688 30.335938 35.246094 L 19.277344 33.71875 C 17.035156 33.410156 17.027344 32.867188 19.265625 32.515625 L 29.1875 30.957031 C 31.425781 30.605469 32.167969 28.820312 30.835938 26.988281 L 24.695312 18.550781 C 23.363281 16.71875 23.773438 16.308594 25.605469 17.640625 Z M 34.042969 23.777344 "
            fill-opacity="1" fill-rule="nonzero" />
    </g>
    <g fill="#000000" fill-opacity="1">
        <g transform="translate(85.663828, 45.053172)">
            <g>
                <path
                    d="M 8.4375 -2.5 C 8.4375 -1.21875 8.46875 -0.382812 8.53125 0 L 2.875 0 L 2.875 -33.1875 L 8.4375 -33.1875 Z M 8.4375 -2.5 " />
            </g>
        </g>
    </g>
    <g fill="#000000" fill-opacity="1">
        <g transform="translate(97.086042, 45.053172)">
            <g>
                <path
                    d="M 2.15625 -11.453125 C 2.15625 -13.179688 2.453125 -14.785156 3.046875 -16.265625 C 3.640625 -17.753906 4.476562 -19.054688 5.5625 -20.171875 C 7.882812 -22.535156 10.914062 -23.71875 14.65625 -23.71875 C 17.8125 -23.71875 20.347656 -22.671875 22.265625 -20.578125 C 24.148438 -18.554688 25.09375 -16.019531 25.09375 -12.96875 C 25.09375 -11.789062 25.003906 -10.988281 24.828125 -10.5625 C 23.347656 -10.144531 20.328125 -9.9375 15.765625 -9.9375 L 7.921875 -9.9375 C 8.304688 -8.34375 9.203125 -7.101562 10.609375 -6.21875 C 12.023438 -5.34375 13.863281 -4.90625 16.125 -4.90625 C 18.488281 -4.90625 20.515625 -5.328125 22.203125 -6.171875 C 22.648438 -6.390625 22.984375 -6.597656 23.203125 -6.796875 C 23.171875 -6.171875 23.132812 -5.53125 23.09375 -4.875 L 22.84375 -1.40625 C 21.71875 -0.632812 19.894531 -0.0976562 17.375 0.203125 C 16.625 0.285156 15.910156 0.328125 15.234375 0.328125 C 11.460938 0.328125 8.34375 -0.769531 5.875 -2.96875 C 3.394531 -5.175781 2.15625 -8.003906 2.15625 -11.453125 Z M 19.171875 -14.25 C 18.566406 -17.445312 16.832031 -19.046875 13.96875 -19.046875 C 11.707031 -19.046875 9.988281 -18.070312 8.8125 -16.125 C 8.457031 -15.53125 8.1875 -14.875 8 -14.15625 C 8.351562 -14.144531 8.789062 -14.132812 9.3125 -14.125 L 10.953125 -14.125 C 11.503906 -14.101562 12.03125 -14.09375 12.53125 -14.09375 L 13.8125 -14.09375 C 14.5625 -14.09375 15.300781 -14.101562 16.03125 -14.125 L 17.859375 -14.1875 C 18.347656 -14.195312 18.785156 -14.21875 19.171875 -14.25 Z M 19.171875 -14.25 " />
            </g>
        </g>
    </g>
    <g fill="#000000" fill-opacity="1">
        <g transform="translate(123.737874, 45.053172)">
            <g>
                <path
                    d="M 18.640625 -1.375 C 16.535156 -0.238281 14.628906 0.328125 12.921875 0.328125 C 11.210938 0.328125 9.75 0.171875 8.53125 -0.140625 C 7.3125 -0.460938 6.28125 -0.9375 5.4375 -1.5625 C 3.707031 -2.820312 2.84375 -4.644531 2.84375 -7.03125 C 2.84375 -9.175781 3.898438 -10.957031 6.015625 -12.375 C 8.296875 -13.925781 11.398438 -14.703125 15.328125 -14.703125 L 16.21875 -14.671875 C 16.394531 -14.660156 16.59375 -14.648438 16.8125 -14.640625 C 17.03125 -14.628906 17.234375 -14.613281 17.421875 -14.59375 C 17.296875 -16.96875 16.269531 -18.351562 14.34375 -18.75 C 13.707031 -18.882812 13.023438 -18.953125 12.296875 -18.953125 C 11.578125 -18.953125 10.875 -18.890625 10.1875 -18.765625 C 9.5 -18.640625 8.828125 -18.472656 8.171875 -18.265625 C 6.734375 -17.804688 5.703125 -17.28125 5.078125 -16.6875 L 5.015625 -16.71875 L 4.34375 -21.640625 C 6.96875 -23.023438 9.84375 -23.71875 12.96875 -23.71875 C 17.800781 -23.71875 20.894531 -21.972656 22.25 -18.484375 C 22.675781 -17.367188 22.890625 -16.113281 22.890625 -14.71875 L 22.890625 -6.65625 C 22.890625 -4.9375 23.5 -3.765625 24.71875 -3.140625 L 20.6875 0.5625 C 19.84375 0.113281 19.160156 -0.53125 18.640625 -1.375 Z M 17.4375 -10.578125 C 17.039062 -10.648438 16.625 -10.6875 16.1875 -10.6875 L 15.296875 -10.6875 C 12.015625 -10.6875 9.929688 -9.957031 9.046875 -8.5 C 8.773438 -8.070312 8.640625 -7.617188 8.640625 -7.140625 C 8.640625 -6.671875 8.722656 -6.253906 8.890625 -5.890625 C 9.066406 -5.523438 9.351562 -5.222656 9.75 -4.984375 C 10.519531 -4.546875 11.664062 -4.328125 13.1875 -4.328125 C 14.71875 -4.328125 16.140625 -4.6875 17.453125 -5.40625 C 17.441406 -5.570312 17.4375 -5.742188 17.4375 -5.921875 Z M 17.4375 -10.578125 " />
            </g>
        </g>
    </g>
    <g fill="#000000" fill-opacity="1">
        <g transform="translate(150.300643, 45.053172)">
            <g>
                <path
                    d="M 8.53125 -2.5 C 8.53125 -1.21875 8.5625 -0.382812 8.625 0 L 3.078125 0 L 3.078125 -23.265625 L 8.53125 -23.265625 L 8.53125 -21.5625 C 9.789062 -23 11.113281 -23.71875 12.5 -23.71875 C 13.894531 -23.71875 14.992188 -23.546875 15.796875 -23.203125 L 15.390625 -17.21875 L 15.296875 -17.140625 C 14.773438 -18.066406 13.703125 -18.53125 12.078125 -18.53125 C 11.453125 -18.53125 10.816406 -18.316406 10.171875 -17.890625 C 9.523438 -17.472656 8.976562 -16.914062 8.53125 -16.21875 Z M 8.53125 -2.5 " />
            </g>
        </g>
    </g>
    <g fill="#000000" fill-opacity="1">
        <g transform="translate(165.530261, 45.053172)">
            <g>
                <path
                    d="M 9.125 -2.84375 C 9.125 -1.539062 9.1875 -0.59375 9.3125 0 L 3.71875 0 L 3.71875 -23.265625 L 9.125 -23.265625 L 9.125 -21.296875 C 11.09375 -22.910156 13.1875 -23.71875 15.40625 -23.71875 C 17.84375 -23.71875 19.785156 -22.890625 21.234375 -21.234375 C 22.691406 -19.578125 23.421875 -17.398438 23.421875 -14.703125 L 23.421875 -5.828125 C 23.421875 -3.328125 23.457031 -1.820312 23.53125 -1.3125 C 23.613281 -0.8125 23.71875 -0.484375 23.84375 -0.328125 C 23.96875 -0.179688 24.070312 -0.0507812 24.15625 0.0625 L 24.125 0.15625 C 22.914062 0.0507812 22.035156 0 21.484375 0 L 19.9375 0 C 19.457031 0 18.816406 0.0195312 18.015625 0.0625 L 18.015625 -12.078125 C 18.015625 -16.421875 16.691406 -18.59375 14.046875 -18.59375 C 12.085938 -18.59375 10.445312 -17.582031 9.125 -15.5625 Z M 9.125 -2.84375 " />
            </g>
        </g>
    </g>
    <g fill="#000000" fill-opacity="1">
        <g transform="translate(192.182092, 45.053172)">
            <g>
                <path
                    d="M 2.5625 -29.90625 C 3.75 -31.757812 4.988281 -33.394531 6.28125 -34.8125 L 11.0625 -31.046875 C 10.425781 -30.253906 9.832031 -29.484375 9.28125 -28.734375 C 9.28125 -28.734375 8.710938 -27.921875 7.578125 -26.296875 Z M 8.421875 -2.5 C 8.421875 -1.21875 8.445312 -0.382812 8.5 0 L 2.84375 0 L 2.84375 -23.265625 L 8.421875 -23.265625 Z M 8.421875 -2.5 " />
            </g>
        </g>
    </g>
    <g fill="#000000" fill-opacity="1">
        <g transform="translate(203.604306, 45.053172)">
            <g>
                <path
                    d="M 14.390625 -20.71875 C 14.265625 -20.28125 14.203125 -19.191406 14.203125 -17.453125 L 14.203125 -15.5 L 8.84375 -15.5 L 8.84375 0 L 3.390625 0 L 3.390625 -15.5 L 0.109375 -15.5 C 0.128906 -16.476562 0.144531 -17.347656 0.15625 -18.109375 L 0.203125 -20.484375 L 0.203125 -20.71875 L 3.390625 -20.71875 L 3.390625 -22.09375 C 3.390625 -25.65625 4.21875 -28.519531 5.875 -30.6875 C 7.613281 -32.925781 10.003906 -34.046875 13.046875 -34.046875 C 14.335938 -34.046875 15.191406 -33.957031 15.609375 -33.78125 L 15.640625 -28.1875 L 15.59375 -28.078125 C 15.03125 -28.640625 14.3125 -28.921875 13.4375 -28.921875 C 12.570312 -28.921875 11.867188 -28.773438 11.328125 -28.484375 C 10.796875 -28.203125 10.347656 -27.796875 9.984375 -27.265625 C 9.222656 -26.191406 8.84375 -24.726562 8.84375 -22.875 L 8.84375 -20.71875 Z M 14.390625 -20.71875 " />
            </g>
        </g>
    </g>
    <g fill="#000000" fill-opacity="1">
        <g transform="translate(218.833924, 45.053172)">
            <g>
                <path
                    d="M 1.140625 7.75 L 2.609375 6.5625 C 4.816406 4.769531 6.648438 2.125 8.109375 -1.375 L 9.125 -3.859375 L 0.59375 -23.265625 L 6.84375 -23.265625 L 12.1875 -9.828125 L 17.140625 -23.265625 L 23.5625 -23.265625 C 22.789062 -22.203125 21.847656 -20.210938 20.734375 -17.296875 L 17.390625 -9.046875 C 12.921875 1.460938 9.414062 7.726562 6.875 9.75 Z M 1.140625 7.75 " />
            </g>
        </g>
    </g>
</svg>