<svg width="16" height="16" viewBox="0 0 16 16" fill="none" xmlns="http://www.w3.org/2000/svg">
    <path
        d="M9.93626 8.68431C10.0797 7.82198 10.3664 6.98972 10.7844 6.22195C11.3625 5.17072 12.0993 4.43041 12.7692 3.76136C12.8106 3.71995 12.8435 3.67078 12.8659 3.61667C12.8883 3.56256 12.8999 3.50457 12.8999 3.446C12.8999 3.38743 12.8883 3.32943 12.8659 3.27532C12.8435 3.22121 12.8106 3.17204 12.7692 3.13063C12.6856 3.04699 12.5721 3 12.4539 3C12.3953 3 12.3373 3.01154 12.2832 3.03395C12.2291 3.05636 12.1799 3.08922 12.1385 3.13063L12.1287 3.14132C11.4632 3.8068 10.6463 4.62373 10.0031 5.79255C9.35363 6.97562 8.89038 8.49722 8.89038 10.5729C8.8905 11.0666 9.05462 11.5462 9.35695 11.9364C9.65927 12.3266 10.0827 12.6054 10.5606 12.7288C11.0386 12.8522 11.544 12.8134 11.9975 12.6184C12.4509 12.4233 12.8268 12.0832 13.0659 11.6513C13.3051 11.2195 13.394 10.7204 13.3187 10.2326C13.2433 9.74474 13.0081 9.29573 12.6498 8.9561C12.2916 8.61648 11.8307 8.4055 11.3395 8.3563C10.8483 8.30711 10.3547 8.42248 9.93626 8.68431ZM9.78125 10.5729C9.78125 10.2185 9.92204 9.87865 10.1726 9.62804C10.4232 9.37743 10.7631 9.23665 11.1176 9.23665C11.472 9.23665 11.8119 9.37743 12.0625 9.62804C12.3131 9.87865 12.4539 10.2185 12.4539 10.5729C12.4539 10.9274 12.3131 11.2673 12.0625 11.5179C11.8119 11.7685 11.472 11.9093 11.1176 11.9093C10.7631 11.9093 10.4232 11.7685 10.1726 11.5179C9.92204 11.2673 9.78125 10.9274 9.78125 10.5729ZM3.70018 8.68431C3.84361 7.82198 4.13027 6.98971 4.54828 6.22195C5.12646 5.17072 5.86321 4.43041 6.53314 3.76136C6.61678 3.67772 6.66377 3.56428 6.66377 3.446C6.66377 3.32771 6.61678 3.21427 6.53314 3.13063C6.4495 3.04699 6.33606 3 6.21777 3C6.09949 3 5.98604 3.04699 5.9024 3.13063L5.89171 3.14132C5.22713 3.8068 4.4102 4.62373 3.76699 5.79255C3.11755 6.97562 2.6543 8.49722 2.6543 10.5729C2.65442 11.0666 2.81854 11.5462 3.12086 11.9364C3.42319 12.3266 3.84659 12.6054 4.32454 12.7288C4.8025 12.8522 5.30791 12.8134 5.76139 12.6184C6.21486 12.4233 6.5907 12.0832 6.82984 11.6513C7.06898 11.2195 7.15788 10.7204 7.08257 10.2326C7.00726 9.74474 6.772 9.29573 6.41376 8.9561C6.05553 8.61648 5.59461 8.4055 5.10344 8.3563C4.61226 8.30711 4.11865 8.42248 3.70018 8.68431ZM4.88147 9.23665C5.23588 9.23665 5.57577 9.37743 5.82638 9.62804C6.07698 9.87865 6.21777 10.2185 6.21777 10.5729C6.21777 10.9274 6.07698 11.2673 5.82638 11.5179C5.57577 11.7685 5.23588 11.9093 4.88147 11.9093C4.52706 11.9093 4.18716 11.7685 3.93656 11.5179C3.68595 11.2673 3.54516 10.9274 3.54516 10.5729C3.54516 10.2185 3.68595 9.87865 3.93656 9.62804C4.18716 9.37743 4.52706 9.23665 4.88147 9.23665Z"
        fill="#A1A1A1" />
</svg>