<svg width="16" height="16" viewBox="0 0 16 16" fill="none" xmlns="http://www.w3.org/2000/svg">
    <path
        d="M10.2635 7.50595C10.6352 7.14389 10.8915 6.67768 10.9995 6.16716C11.1075 5.65664 11.0622 5.12512 10.8695 4.64083C10.6768 4.15653 10.3455 3.74157 9.91801 3.4492C9.49056 3.15683 8.98652 3.0004 8.47059 3H4.47059C4.34578 3 4.22608 3.05017 4.13783 3.13947C4.04958 3.22878 4 3.3499 4 3.47619V12.5238C4 12.6501 4.04958 12.7712 4.13783 12.8605C4.22608 12.9498 4.34578 13 4.47059 13H9.17647C9.8291 13 10.4616 12.7712 10.9663 12.3526C11.4711 11.934 11.8169 11.3513 11.945 10.7038C12.0732 10.0562 11.9757 9.38376 11.6691 8.80075C11.3625 8.21775 10.8658 7.76021 10.2635 7.50595ZM4.94118 3.95238H8.47059C8.90741 3.95238 9.32635 4.12798 9.63523 4.44054C9.94412 4.7531 10.1176 5.17702 10.1176 5.61905C10.1176 6.06108 9.94412 6.485 9.63523 6.79756C9.32635 7.11012 8.90741 7.28571 8.47059 7.28571H4.94118V3.95238ZM9.17647 12.0476H4.94118V8.2381H9.17647C9.6757 8.2381 10.1545 8.43878 10.5075 8.79599C10.8605 9.1532 11.0588 9.63768 11.0588 10.1429C11.0588 10.648 10.8605 11.1325 10.5075 11.4897C10.1545 11.8469 9.6757 12.0476 9.17647 12.0476Z"
        fill="#A1A1A1" />
</svg>