<svg width="16" height="16" viewBox="0 0 16 16" fill="none" xmlns="http://www.w3.org/2000/svg">
    <path
        d="M5.05594 6.23699L3.0249 8.00001L5.05594 9.76303C5.09746 9.79765 5.13194 9.84055 5.15735 9.88922C5.18277 9.9379 5.19861 9.99136 5.20395 10.0465C5.20928 10.1016 5.20402 10.1573 5.18845 10.2103C5.17288 10.2632 5.14732 10.3125 5.11327 10.355C5.07923 10.3976 5.03737 10.4327 4.99015 10.4582C4.94294 10.4837 4.89132 10.4991 4.8383 10.5036C4.78528 10.5081 4.73194 10.5015 4.6814 10.4843C4.63085 10.467 4.58412 10.4394 4.54393 10.4031L2.14388 8.3198C2.09885 8.28069 2.06262 8.23176 2.03775 8.17645C2.01289 8.12114 2 8.06082 2 7.99975C2 7.93868 2.01289 7.87835 2.03775 7.82304C2.06262 7.76774 2.09885 7.7188 2.14388 7.67969L4.54393 5.59636C4.62549 5.52564 4.73067 5.49156 4.83635 5.50162C4.94203 5.51168 5.03955 5.56506 5.10744 5.65001C5.17534 5.73496 5.20806 5.84453 5.1984 5.95461C5.18874 6.06469 5.1375 6.16626 5.05594 6.23699ZM13.8561 7.67969L11.4561 5.59636C11.4157 5.56135 11.3691 5.53495 11.3189 5.5187C11.2687 5.50244 11.216 5.49664 11.1636 5.50162C11.1113 5.5066 11.0604 5.52227 11.0139 5.54773C10.9674 5.57319 10.9262 5.60795 10.8926 5.65001C10.8247 5.73496 10.7919 5.84453 10.8016 5.95461C10.8113 6.06469 10.8625 6.16626 10.9441 6.23699L12.9751 8.00001L10.9441 9.76303C10.9025 9.79765 10.8681 9.84055 10.8426 9.88922C10.8172 9.9379 10.8014 9.99136 10.7961 10.0465C10.7907 10.1016 10.796 10.1573 10.8116 10.2103C10.8271 10.2632 10.8527 10.3125 10.8867 10.355C10.9208 10.3976 10.9626 10.4327 11.0098 10.4582C11.0571 10.4837 11.1087 10.4991 11.1617 10.5036C11.2147 10.5081 11.2681 10.5015 11.3186 10.4843C11.3691 10.467 11.4159 10.4394 11.4561 10.4031L13.8561 8.3198C13.9012 8.28069 13.9374 8.23176 13.9622 8.17645C13.9871 8.12114 14 8.06082 14 7.99975C14 7.93868 13.9871 7.87835 13.9622 7.82304C13.9374 7.76774 13.9012 7.7188 13.8561 7.67969ZM9.73653 3.02501C9.68716 3.00634 9.63473 2.99798 9.58225 3.00041C9.52977 3.00284 9.47827 3.01602 9.43067 3.03918C9.38308 3.06235 9.34034 3.09505 9.30488 3.13543C9.26942 3.1758 9.24195 3.22306 9.22402 3.27449L6.02396 12.4411C6.00596 12.4926 5.99787 12.5473 6.00017 12.602C6.00246 12.6567 6.0151 12.7104 6.03734 12.7601C6.05959 12.8097 6.09101 12.8543 6.12981 12.8912C6.16861 12.9282 6.21403 12.9569 6.26346 12.9755C6.30729 12.9917 6.35346 13 6.39997 13C6.48212 13 6.56227 12.9737 6.62954 12.9246C6.69682 12.8754 6.74794 12.806 6.77598 12.7255L9.97604 3.55887C9.99397 3.50743 10.002 3.45282 9.99966 3.39816C9.99732 3.34349 9.98468 3.28984 9.96244 3.24027C9.9402 3.1907 9.9088 3.14617 9.87004 3.10924C9.83128 3.0723 9.78591 3.04368 9.73653 3.02501Z"
        fill="#A1A1A1" />
</svg>