<svg width="16" height="16" viewBox="0 0 16 16" fill="none" xmlns="http://www.w3.org/2000/svg">
    <path
        d="M11.265 9.235C11.3352 9.30531 11.3747 9.40062 11.3747 9.5C11.3747 9.59938 11.3352 9.69469 11.265 9.765L9.765 11.265C9.69391 11.3312 9.59989 11.3673 9.50274 11.3656C9.40559 11.3639 9.3129 11.3245 9.24419 11.2558C9.17548 11.1871 9.13613 11.0944 9.13441 10.9973C9.1327 10.9001 9.16876 10.8061 9.235 10.735L10.4694 9.5L9.235 8.265C9.19816 8.23067 9.16861 8.18927 9.14811 8.14327C9.12761 8.09727 9.11659 8.04761 9.1157 7.99726C9.11482 7.94691 9.12408 7.8969 9.14294 7.8502C9.1618 7.80351 9.18987 7.76109 9.22548 7.72548C9.26109 7.68987 9.30351 7.6618 9.3502 7.64294C9.3969 7.62408 9.44691 7.61482 9.49726 7.6157C9.54761 7.61659 9.59727 7.62761 9.64327 7.64811C9.68927 7.66861 9.73067 7.69816 9.765 7.735L11.265 9.235ZM6.765 7.735C6.69469 7.66477 6.59938 7.62533 6.5 7.62533C6.40062 7.62533 6.30531 7.66477 6.235 7.735L4.735 9.235C4.66477 9.30531 4.62533 9.40062 4.62533 9.5C4.62533 9.59938 4.66477 9.69469 4.735 9.765L6.235 11.265C6.26933 11.3018 6.31073 11.3314 6.35673 11.3519C6.40273 11.3724 6.45239 11.3834 6.50274 11.3843C6.55309 11.3852 6.6031 11.3759 6.6498 11.3571C6.69649 11.3382 6.73891 11.3101 6.77452 11.2745C6.81013 11.2389 6.8382 11.1965 6.85706 11.1498C6.87592 11.1031 6.88518 11.0531 6.8843 11.0027C6.88341 10.9524 6.87239 10.9027 6.85189 10.8567C6.83139 10.8107 6.80184 10.7693 6.765 10.735L5.53062 9.5L6.765 8.265C6.83523 8.19469 6.87467 8.09938 6.87467 8C6.87467 7.90062 6.83523 7.80531 6.765 7.735ZM13.375 5.5V13.5C13.375 13.7321 13.2828 13.9546 13.1187 14.1187C12.9546 14.2828 12.7321 14.375 12.5 14.375H3.5C3.26794 14.375 3.04538 14.2828 2.88128 14.1187C2.71719 13.9546 2.625 13.7321 2.625 13.5V2.5C2.625 2.26794 2.71719 2.04538 2.88128 1.88128C3.04538 1.71719 3.26794 1.625 3.5 1.625H9.5C9.54933 1.62496 9.59819 1.63466 9.64377 1.65353C9.68935 1.67241 9.73076 1.70009 9.76562 1.735L13.2656 5.235C13.3357 5.30536 13.3751 5.40067 13.375 5.5ZM9.875 5.125H12.095L9.875 2.905V5.125ZM12.625 13.5V5.875H9.5C9.40054 5.875 9.30516 5.83549 9.23483 5.76516C9.16451 5.69484 9.125 5.59946 9.125 5.5V2.375H3.5C3.46685 2.375 3.43505 2.38817 3.41161 2.41161C3.38817 2.43505 3.375 2.46685 3.375 2.5V13.5C3.375 13.5332 3.38817 13.5649 3.41161 13.5884C3.43505 13.6118 3.46685 13.625 3.5 13.625H12.5C12.5332 13.625 12.5649 13.6118 12.5884 13.5884C12.6118 13.5649 12.625 13.5332 12.625 13.5Z"
        fill="#A1A1A1" />
</svg>