<svg width="16" height="16" viewBox="0 0 16 16" fill="none" xmlns="http://www.w3.org/2000/svg">
    <path
        d="M14.375 7V13C14.375 13.0995 14.3355 13.1948 14.2652 13.2652C14.1948 13.3355 14.0995 13.375 14 13.375C13.9005 13.375 13.8052 13.3355 13.7348 13.2652C13.6645 13.1948 13.625 13.0995 13.625 13V7.70062L12.7081 8.3125C12.6252 8.3677 12.5238 8.38771 12.4262 8.36814C12.3286 8.34856 12.2427 8.29101 12.1875 8.20813C12.1323 8.12525 12.1123 8.02383 12.1319 7.9262C12.1514 7.82856 12.209 7.7427 12.2919 7.6875L13.7919 6.6875C13.8484 6.6498 13.9141 6.62815 13.9819 6.62488C14.0498 6.62161 14.1173 6.63683 14.1771 6.66891C14.237 6.701 14.287 6.74875 14.3219 6.80707C14.3567 6.86538 14.3751 6.93207 14.375 7ZM9 3.125C8.90054 3.125 8.80516 3.16451 8.73483 3.23483C8.66451 3.30516 8.625 3.40054 8.625 3.5V6.875H2.875V3.5C2.875 3.40054 2.83549 3.30516 2.76517 3.23483C2.69484 3.16451 2.59946 3.125 2.5 3.125C2.40054 3.125 2.30516 3.16451 2.23483 3.23483C2.16451 3.30516 2.125 3.40054 2.125 3.5V11C2.125 11.0995 2.16451 11.1948 2.23483 11.2652C2.30516 11.3355 2.40054 11.375 2.5 11.375C2.59946 11.375 2.69484 11.3355 2.76517 11.2652C2.83549 11.1948 2.875 11.0995 2.875 11V7.625H8.625V11C8.625 11.0995 8.66451 11.1948 8.73483 11.2652C8.80516 11.3355 8.90054 11.375 9 11.375C9.09946 11.375 9.19484 11.3355 9.26517 11.2652C9.33549 11.1948 9.375 11.0995 9.375 11V3.5C9.375 3.40054 9.33549 3.30516 9.26517 3.23483C9.19484 3.16451 9.09946 3.125 9 3.125Z"
        fill="#A1A1A1" />
</svg>