<svg width="16" height="16" viewBox="0 0 16 16" fill="none" xmlns="http://www.w3.org/2000/svg">
    <path
        d="M9.375 3.5V11C9.375 11.0995 9.33549 11.1948 9.26517 11.2652C9.19484 11.3355 9.09946 11.375 9 11.375C8.90054 11.375 8.80516 11.3355 8.73483 11.2652C8.66451 11.1948 8.625 11.0995 8.625 11V7.625H2.875V11C2.875 11.0995 2.83549 11.1948 2.76517 11.2652C2.69484 11.3355 2.59946 11.375 2.5 11.375C2.40054 11.375 2.30516 11.3355 2.23483 11.2652C2.16451 11.1948 2.125 11.0995 2.125 11V3.5C2.125 3.40054 2.16451 3.30516 2.23483 3.23483C2.30516 3.16451 2.40054 3.125 2.5 3.125C2.59946 3.125 2.69484 3.16451 2.76517 3.23483C2.83549 3.30516 2.875 3.40054 2.875 3.5V6.875H8.625V3.5C8.625 3.40054 8.66451 3.30516 8.73483 3.23483C8.80516 3.16451 8.90054 3.125 9 3.125C9.09946 3.125 9.19484 3.16451 9.26517 3.23483C9.33549 3.30516 9.375 3.40054 9.375 3.5ZM15 12.625H12.75L15 9.62813C15.1613 9.41196 15.274 9.16355 15.3306 8.89984C15.3871 8.63613 15.386 8.36332 15.3275 8.10005C15.269 7.83677 15.1544 7.58922 14.9915 7.37428C14.8286 7.15934 14.6212 6.98208 14.3835 6.85459C14.1459 6.7271 13.8835 6.65238 13.6143 6.63553C13.3451 6.61869 13.0755 6.66011 12.8238 6.75697C12.5721 6.85383 12.3442 7.00385 12.1558 7.1968C11.9674 7.38975 11.8228 7.62108 11.7319 7.875C11.7119 7.9221 11.7017 7.9728 11.7021 8.02397C11.7024 8.07514 11.7132 8.1257 11.7338 8.17255C11.7544 8.21939 11.7844 8.26152 11.8219 8.29634C11.8594 8.33116 11.9036 8.35794 11.9518 8.37503C12 8.39212 12.0513 8.39916 12.1023 8.39571C12.1534 8.39226 12.2032 8.3784 12.2487 8.35498C12.2942 8.33155 12.3344 8.29907 12.3669 8.25952C12.3994 8.21996 12.4234 8.17419 12.4375 8.125C12.5062 7.93089 12.6269 7.75936 12.7863 7.62909C12.9458 7.49883 13.138 7.41483 13.3419 7.38625C13.5622 7.35541 13.7867 7.39058 13.987 7.48731C14.1874 7.58404 14.3545 7.738 14.4674 7.92971C14.5802 8.12142 14.6337 8.34229 14.621 8.56439C14.6084 8.78648 14.5301 8.99985 14.3962 9.1775L11.7 12.775C11.6582 12.8307 11.6328 12.897 11.6265 12.9663C11.6203 13.0357 11.6334 13.1054 11.6646 13.1677C11.6957 13.23 11.7436 13.2824 11.8029 13.319C11.8621 13.3556 11.9304 13.375 12 13.375H15C15.0995 13.375 15.1948 13.3355 15.2652 13.2652C15.3355 13.1948 15.375 13.0995 15.375 13C15.375 12.9005 15.3355 12.8052 15.2652 12.7348C15.1948 12.6645 15.0995 12.625 15 12.625Z"
        fill="#A1A1A1" />
</svg>