<svg width="16" height="16" viewBox="0 0 16 16" fill="none" xmlns="http://www.w3.org/2000/svg">
    <path
        d="M15.375 11.25C15.375 11.6722 15.2492 12.0848 15.0138 12.4352C14.7783 12.7856 14.4438 13.0579 14.053 13.2174C13.6621 13.3769 13.2326 13.4164 12.8192 13.3308C12.4058 13.2452 12.0273 13.0385 11.7319 12.7369C11.6623 12.6658 11.6239 12.5699 11.625 12.4705C11.6261 12.371 11.6667 12.2761 11.7378 12.2066C11.8089 12.137 11.9047 12.0986 12.0042 12.0997C12.1037 12.1008 12.1986 12.1414 12.2681 12.2125C12.4268 12.3744 12.6231 12.4945 12.8394 12.5623C13.0558 12.63 13.2855 12.6431 13.5082 12.6006C13.7309 12.558 13.9396 12.461 14.1157 12.3183C14.2919 12.1756 14.43 11.9915 14.5178 11.7825C14.6056 11.5735 14.6403 11.346 14.6189 11.1203C14.5976 10.8946 14.5207 10.6777 14.3952 10.4889C14.2697 10.3001 14.0995 10.1452 13.8997 10.0381C13.6999 9.93103 13.4767 9.87499 13.25 9.875C13.1814 9.87505 13.1141 9.85627 13.0554 9.82071C12.9967 9.78514 12.9489 9.73416 12.9172 9.67332C12.8855 9.61247 12.8711 9.54409 12.8755 9.47562C12.88 9.40715 12.9032 9.34122 12.9425 9.285L14.28 7.375H12C11.9005 7.375 11.8052 7.33549 11.7348 7.26516C11.6645 7.19484 11.625 7.09946 11.625 7C11.625 6.90054 11.6645 6.80516 11.7348 6.73484C11.8052 6.66451 11.9005 6.625 12 6.625H15C15.0686 6.62507 15.1358 6.64393 15.1944 6.67954C15.253 6.71514 15.3007 6.76613 15.3323 6.82696C15.364 6.88778 15.3783 6.95612 15.3738 7.02454C15.3693 7.09295 15.3462 7.15883 15.3069 7.215L13.8994 9.22625C14.3277 9.36431 14.7012 9.63455 14.9663 9.99815C15.2314 10.3617 15.3745 10.8 15.375 11.25ZM9 3.125C8.90054 3.125 8.80516 3.16451 8.73483 3.23483C8.66451 3.30516 8.625 3.40054 8.625 3.5V6.875H2.875V3.5C2.875 3.40054 2.83549 3.30516 2.76517 3.23483C2.69484 3.16451 2.59946 3.125 2.5 3.125C2.40054 3.125 2.30516 3.16451 2.23483 3.23483C2.16451 3.30516 2.125 3.40054 2.125 3.5V11C2.125 11.0995 2.16451 11.1948 2.23483 11.2652C2.30516 11.3355 2.40054 11.375 2.5 11.375C2.59946 11.375 2.69484 11.3355 2.76517 11.2652C2.83549 11.1948 2.875 11.0995 2.875 11V7.625H8.625V11C8.625 11.0995 8.66451 11.1948 8.73483 11.2652C8.80516 11.3355 8.90054 11.375 9 11.375C9.09946 11.375 9.19484 11.3355 9.26517 11.2652C9.33549 11.1948 9.375 11.0995 9.375 11V3.5C9.375 3.40054 9.33549 3.30516 9.26517 3.23483C9.19484 3.16451 9.09946 3.125 9 3.125Z"
        fill="#A1A1A1" />
</svg>