<svg width="16" height="16" viewBox="0 0 16 16" fill="none" xmlns="http://www.w3.org/2000/svg">
    <path
        d="M15.875 11C15.875 11.0995 15.8355 11.1948 15.7652 11.2652C15.6948 11.3355 15.5995 11.375 15.5 11.375H14.875V13C14.875 13.0995 14.8355 13.1948 14.7652 13.2652C14.6948 13.3355 14.5995 13.375 14.5 13.375C14.4005 13.375 14.3052 13.3355 14.2348 13.2652C14.1645 13.1948 14.125 13.0995 14.125 13V11.375H11.5C11.4406 11.375 11.382 11.3609 11.3291 11.3338C11.2762 11.3067 11.2305 11.2674 11.1958 11.2192C11.1611 11.1709 11.1383 11.1152 11.1293 11.0564C11.1204 10.9977 11.1256 10.9376 11.1444 10.8813L12.6444 6.38125C12.6592 6.33365 12.6834 6.28949 12.7156 6.25136C12.7477 6.21323 12.7871 6.18189 12.8315 6.15917C12.8759 6.13646 12.9244 6.12283 12.9741 6.11907C13.0238 6.11532 13.0738 6.12152 13.1211 6.13732C13.1684 6.15311 13.2121 6.17818 13.2496 6.21106C13.2871 6.24393 13.3176 6.28396 13.3395 6.32879C13.3613 6.37362 13.374 6.42235 13.3768 6.47214C13.3795 6.52193 13.3723 6.57177 13.3556 6.61875L12.02 10.625H14.125V9C14.125 8.90054 14.1645 8.80516 14.2348 8.73483C14.3052 8.66451 14.4005 8.625 14.5 8.625C14.5995 8.625 14.6948 8.66451 14.7652 8.73483C14.8355 8.80516 14.875 8.90054 14.875 9V10.625H15.5C15.5995 10.625 15.6948 10.6645 15.7652 10.7348C15.8355 10.8052 15.875 10.9005 15.875 11ZM9 3.125C8.90054 3.125 8.80516 3.16451 8.73483 3.23483C8.66451 3.30516 8.625 3.40054 8.625 3.5V6.875H2.875V3.5C2.875 3.40054 2.83549 3.30516 2.76517 3.23483C2.69484 3.16451 2.59946 3.125 2.5 3.125C2.40054 3.125 2.30516 3.16451 2.23483 3.23483C2.16451 3.30516 2.125 3.40054 2.125 3.5V11C2.125 11.0995 2.16451 11.1948 2.23483 11.2652C2.30516 11.3355 2.40054 11.375 2.5 11.375C2.59946 11.375 2.69484 11.3355 2.76517 11.2652C2.83549 11.1948 2.875 11.0995 2.875 11V7.625H8.625V11C8.625 11.0995 8.66451 11.1948 8.73483 11.2652C8.80516 11.3355 8.90054 11.375 9 11.375C9.09946 11.375 9.19484 11.3355 9.26517 11.2652C9.33549 11.1948 9.375 11.0995 9.375 11V3.5C9.375 3.40054 9.33549 3.30516 9.26517 3.23483C9.19484 3.16451 9.09946 3.125 9 3.125Z"
        fill="#A1A1A1" />
</svg>