<svg width="16" height="16" viewBox="0 0 16 16" fill="none" xmlns="http://www.w3.org/2000/svg">
    <path
        d="M13.0457 2.99532C11.7186 1.66823 9.55924 1.66823 8.23217 2.99532L5.82538 5.40211L6.39172 5.9684L8.79846 3.56161C9.28659 3.07348 9.94863 2.79926 10.6389 2.79926C10.9808 2.79926 11.3192 2.86659 11.635 2.9974C11.9508 3.1282 12.2377 3.31993 12.4794 3.56162C12.7211 3.80332 12.9128 4.09025 13.0436 4.40604C13.1744 4.72183 13.2418 5.0603 13.2418 5.4021C13.2418 5.74391 13.1744 6.08237 13.0436 6.39816C12.9128 6.71395 12.7211 7.00089 12.4794 7.24258L10.0726 9.64937L10.6388 10.2157L13.0456 7.80887C14.3729 6.48178 14.3729 4.32244 13.0457 2.99532ZM7.24112 12.4809C6.753 12.969 6.09096 13.2432 5.40065 13.2432C4.71034 13.2432 4.0483 12.969 3.56017 12.4809C3.07205 11.9927 2.79783 11.3307 2.79783 10.6404C2.79783 9.95009 3.07205 9.28805 3.56017 8.79992L5.82541 6.53469L5.25912 5.9684L2.99386 8.23363C2.67656 8.54942 2.42468 8.92471 2.25263 9.33799C2.08058 9.75126 1.99174 10.1944 1.99121 10.6421C1.99068 11.0897 2.07846 11.5331 2.24953 11.9468C2.4206 12.3605 2.67159 12.7364 2.98814 13.0529C3.30468 13.3695 3.68056 13.6204 4.09425 13.7915C4.50794 13.9626 4.95131 14.0504 5.39897 14.0498C5.84663 14.0493 6.28979 13.9604 6.70306 13.7884C7.11634 13.6163 7.49162 13.3645 7.80741 13.0472L10.0726 10.782L9.50633 10.2157L7.24112 12.4809Z"
        fill="#A1A1A1" />
    <path d="M4.83398 10.6406L10.497 4.97754L11.0633 5.54385L5.40027 11.2069L4.83398 10.6406Z" fill="#A1A1A1" />
</svg>