<svg width="18" height="16" viewBox="0 0 18 16" fill="none" xmlns="http://www.w3.org/2000/svg">
    <path fill-rule="evenodd" clip-rule="evenodd"
        d="M5.33301 12.3889C5.33301 12.2268 5.39739 12.0714 5.512 11.9568C5.6266 11.8422 5.78204 11.7778 5.94412 11.7778H16.9441C17.1062 11.7778 17.2616 11.8422 17.3762 11.9568C17.4908 12.0714 17.5552 12.2268 17.5552 12.3889C17.5552 12.551 17.4908 12.7064 17.3762 12.821C17.2616 12.9356 17.1062 13 16.9441 13H5.94412C5.78204 13 5.6266 12.9356 5.512 12.821C5.39739 12.7064 5.33301 12.551 5.33301 12.3889ZM5.33301 7.5C5.33301 7.33792 5.39739 7.18248 5.512 7.06788C5.6266 6.95327 5.78204 6.88889 5.94412 6.88889H16.9441C17.1062 6.88889 17.2616 6.95327 17.3762 7.06788C17.4908 7.18248 17.5552 7.33792 17.5552 7.5C17.5552 7.66208 17.4908 7.81751 17.3762 7.93212C17.2616 8.04673 17.1062 8.11111 16.9441 8.11111H5.94412C5.78204 8.11111 5.6266 8.04673 5.512 7.93212C5.39739 7.81751 5.33301 7.66208 5.33301 7.5ZM5.33301 2.61111C5.33301 2.44903 5.39739 2.2936 5.512 2.17899C5.6266 2.06438 5.78204 2 5.94412 2H16.9441C17.1062 2 17.2616 2.06438 17.3762 2.17899C17.4908 2.2936 17.5552 2.44903 17.5552 2.61111C17.5552 2.77319 17.4908 2.92863 17.3762 3.04323C17.2616 3.15784 17.1062 3.22222 16.9441 3.22222H5.94412C5.78204 3.22222 5.6266 3.15784 5.512 3.04323C5.39739 2.92863 5.33301 2.77319 5.33301 2.61111Z"
        fill="#A1A1A1" />
    <path
        d="M1.28876 11.7854V11.2988H1.62866C1.88566 11.2988 2.05857 11.1581 2.05857 10.9733C2.05857 10.7834 1.87145 10.655 1.63103 10.655C1.36692 10.655 1.19638 10.8111 1.18928 10.9733H0.490525C0.509474 10.4938 0.932278 10.1653 1.65827 10.1653C2.35465 10.1632 2.78811 10.4641 2.79167 10.8871C2.79391 11.0321 2.73651 11.1732 2.62975 11.2849C2.52298 11.3967 2.37383 11.4718 2.20898 11.4969V11.5308C2.39588 11.5429 2.57021 11.617 2.69572 11.7376C2.82123 11.8583 2.88825 12.0162 2.88286 12.1786C2.88641 12.7259 2.28833 13 1.63813 13C0.861218 13 0.453811 12.6201 0.444336 12.1848H1.13361C1.14309 12.3676 1.3539 12.499 1.6334 12.5021C1.93422 12.5021 2.13555 12.3532 2.13318 12.1427C2.13081 11.9425 1.94961 11.7854 1.64287 11.7854H1.28757H1.28876ZM1.28402 6.96098H0.56869V6.92505C0.56869 6.50616 0.918065 6.05852 1.70327 6.05852C2.39373 6.05852 2.84022 6.39322 2.84022 6.8347C2.84022 7.23409 2.53585 7.46817 2.27648 7.70534L1.6405 8.29261V8.32341H2.88878V8.84394H0.613694V8.4384L1.74709 7.42197C1.91053 7.27618 2.0941 7.10986 2.0941 6.90041C2.0941 6.7156 1.92 6.57187 1.68906 6.57187C1.63575 6.57017 1.58259 6.57796 1.53288 6.59474C1.48317 6.61153 1.43795 6.63696 1.4 6.66947C1.36206 6.70198 1.33219 6.74088 1.31224 6.78378C1.2923 6.82667 1.28269 6.87265 1.28402 6.91889V6.96098ZM2.29662 4.73717H1.54457V2.60575H1.50786L0.799633 3.03696V2.45483L1.54457 2H2.29662V4.73717Z"
        fill="#A1A1A1" />
</svg>