<svg width="16" height="16" viewBox="0 0 16 16" fill="none" xmlns="http://www.w3.org/2000/svg">
    <path
        d="M3.33301 2H11.9997C12.5301 2 13.0388 2.21071 13.4139 2.58579C13.789 2.96086 13.9997 3.46957 13.9997 4V12.6667C13.9997 13.1971 13.789 13.7058 13.4139 14.0809C13.0388 14.456 12.5301 14.6667 11.9997 14.6667H3.33301C2.80257 14.6667 2.29387 14.456 1.91879 14.0809C1.54372 13.7058 1.33301 13.1971 1.33301 12.6667V4C1.33301 3.46957 1.54372 2.96086 1.91879 2.58579C2.29387 2.21071 2.80257 2 3.33301 2ZM3.33301 2.66667C2.97939 2.66667 2.64025 2.80714 2.3902 3.05719C2.14015 3.30724 1.99967 3.64638 1.99967 4V11.7267L4.85967 8.86L6.52634 10.5267L9.85967 7.19333L13.333 10.6667V4C13.333 3.64638 13.1925 3.30724 12.9425 3.05719C12.6924 2.80714 12.3533 2.66667 11.9997 2.66667H3.33301ZM6.52634 11.4733L4.85967 9.80667L1.99967 12.6667C1.99967 13.0203 2.14015 13.3594 2.3902 13.6095C2.64025 13.8595 2.97939 14 3.33301 14H11.9997C12.3533 14 12.6924 13.8595 12.9425 13.6095C13.1925 13.3594 13.333 13.0203 13.333 12.6667V11.6067L9.85967 8.14L6.52634 11.4733ZM4.99967 4C5.4417 4 5.86563 4.17559 6.17819 4.48816C6.49075 4.80072 6.66634 5.22464 6.66634 5.66667C6.66634 6.10869 6.49075 6.53262 6.17819 6.84518C5.86563 7.15774 5.4417 7.33333 4.99967 7.33333C4.55765 7.33333 4.13372 7.15774 3.82116 6.84518C3.5086 6.53262 3.33301 6.10869 3.33301 5.66667C3.33301 5.22464 3.5086 4.80072 3.82116 4.48816C4.13372 4.17559 4.55765 4 4.99967 4ZM4.99967 4.66667C4.73446 4.66667 4.4801 4.77202 4.29257 4.95956C4.10503 5.1471 3.99967 5.40145 3.99967 5.66667C3.99967 5.93188 4.10503 6.18624 4.29257 6.37377C4.4801 6.56131 4.73446 6.66667 4.99967 6.66667C5.26489 6.66667 5.51925 6.56131 5.70678 6.37377C5.89432 6.18624 5.99967 5.93188 5.99967 5.66667C5.99967 5.40145 5.89432 5.1471 5.70678 4.95956C5.51925 4.77202 5.26489 4.66667 4.99967 4.66667Z"
        fill="#A1A1A1" />
</svg>