<svg width="24" height="24" viewBox="0 0 24 24" fill="none" xmlns="http://www.w3.org/2000/svg">
<path d="M12 13.5C12.8284 13.5 13.5 12.8284 13.5 12C13.5 11.1716 12.8284 10.5 12 10.5C11.1716 10.5 10.5 11.1716 10.5 12C10.5 12.8284 11.1716 13.5 12 13.5Z" fill="#FF6161"/>
<path d="M15.2899 18.12L13.9999 16.78L13.9299 16.71L12.6599 15.44C12.4584 15.4753 12.2545 15.4954 12.0499 15.5C11.5861 15.5066 11.1256 15.421 10.6952 15.2481C10.2648 15.0751 9.87301 14.8184 9.54269 14.4927C9.21237 14.1671 8.95008 13.779 8.77107 13.351C8.59206 12.9231 8.4999 12.4639 8.49995 12C8.50458 11.7954 8.52464 11.5915 8.55995 11.39L6.55995 9.39L4.99995 7.87C3.87127 8.93347 2.90435 10.1564 2.12995 11.5C2.04218 11.652 1.99597 11.8245 1.99597 12C1.99597 12.1755 2.04218 12.348 2.12995 12.5C2.75995 13.59 6.12995 19 12.0199 19H12.2699C13.3775 18.9671 14.4707 18.7404 15.4999 18.33L15.2899 18.12ZM8.58995 5.76L11.3899 8.56C11.5915 8.5247 11.7954 8.50464 11.9999 8.5C12.9282 8.5 13.8184 8.86875 14.4748 9.52513C15.1312 10.1815 15.4999 11.0717 15.4999 12C15.4953 12.2046 15.4753 12.4085 15.4399 12.61L18.1199 15.29L18.9599 16.13C20.1028 15.0693 21.0833 13.8462 21.8699 12.5C21.9577 12.348 22.0039 12.1755 22.0039 12C22.0039 11.8245 21.9577 11.652 21.8699 11.5C21.2299 10.39 17.7099 4.82 11.7299 5C10.6224 5.03285 9.52918 5.25962 8.49995 5.67L8.58995 5.76ZM20.7099 19.29L19.4099 18L17.4099 16L7.88995 6.47L6.41995 5L4.70995 3.29C4.61671 3.19676 4.50602 3.1228 4.3842 3.07234C4.26237 3.02188 4.13181 2.99591 3.99995 2.99591C3.86809 2.99591 3.73752 3.02188 3.6157 3.07234C3.49388 3.1228 3.38318 3.19676 3.28995 3.29C3.10164 3.4783 2.99585 3.7337 2.99585 4C2.99585 4.2663 3.10164 4.5217 3.28995 4.71L5.52995 7L7.27995 8.7L14.5899 16L14.6599 16.07L15.9999 17.41L16.5899 18L19.2899 20.71C19.3829 20.8037 19.4935 20.8781 19.6154 20.9289C19.7372 20.9797 19.8679 21.0058 19.9999 21.0058C20.132 21.0058 20.2627 20.9797 20.3845 20.9289C20.5064 20.8781 20.617 20.8037 20.7099 20.71C20.8037 20.617 20.8781 20.5064 20.9288 20.3846C20.9796 20.2627 21.0057 20.132 21.0057 20C21.0057 19.868 20.9796 19.7373 20.9288 19.6154C20.8781 19.4936 20.8037 19.383 20.7099 19.29Z" fill="#666666"/>
</svg>
