<svg viewBox="0 0 31 40" fill="#FFF" xmlns="http://www.w3.org/2000/svg"><path fill-rule="evenodd" clip-rule="evenodd" d="M24.7619 13.3333H26.6667C28.7619 13.3333 30.4762 15.0476 30.4762 17.1429V36.1905C30.4762 38.2857 28.7619 40 26.6667 40H3.80952C1.71429 40 0 38.2857 0 36.1905V17.1429C0 15.0476 1.71429 13.3333 3.80952 13.3333H5.71429V9.52381C5.71429 4.26667 9.98095 0 15.2381 0C20.4952 0 24.7619 4.26667 24.7619 9.52381V13.3333ZM15.2379 3.80951C12.076 3.80951 9.52362 6.36189 9.52362 9.5238V13.3333H20.9522V9.5238C20.9522 6.36189 18.3998 3.80951 15.2379 3.80951ZM26.6669 36.1905H3.80971V17.1428H26.6669V36.1905ZM19.0476 26.6667C19.0476 28.7619 17.3333 30.4762 15.2381 30.4762C13.1429 30.4762 11.4286 28.7619 11.4286 26.6667C11.4286 24.5714 13.1429 22.8572 15.2381 22.8572C17.3333 22.8572 19.0476 24.5714 19.0476 26.6667Z"></path></svg>