<svg width="16" height="16" viewBox="0 0 16 16" fill="none" xmlns="http://www.w3.org/2000/svg">
<g clip-path="url(#clip0_459_12206)">
<path d="M13.1431 5.71427C13.1431 9.14284 8.00028 13.1428 8.00028 13.1428C8.00028 13.1428 2.85742 9.14284 2.85742 5.71427C2.85742 2.91313 5.19914 0.571411 8.00028 0.571411C10.8014 0.571411 13.1431 2.91313 13.1431 5.71427Z" stroke="#070707" stroke-width="1.14286" stroke-linecap="round" stroke-linejoin="round"/>
<path d="M12.6593 11.4286H13.7141L15.4284 15.4286H0.571289L2.28557 11.4286H3.34043M7.99986 7.42857C8.45452 7.42857 8.89055 7.24796 9.21204 6.92647C9.53354 6.60498 9.71415 6.16894 9.71415 5.71429C9.71415 5.25963 9.53354 4.82359 9.21204 4.5021C8.89055 4.18061 8.45452 4 7.99986 4C7.5452 4 7.10917 4.18061 6.78768 4.5021C6.46619 4.82359 6.28558 5.25963 6.28558 5.71429C6.28558 6.16894 6.46619 6.60498 6.78768 6.92647C7.10917 7.24796 7.5452 7.42857 7.99986 7.42857Z" stroke="#070707" stroke-width="1.14286" stroke-linecap="round" stroke-linejoin="round"/>
</g>
<defs>
<clipPath id="clip0_459_12206">
<rect width="16" height="16" fill="white"/>
</clipPath>
</defs>
</svg>
