<svg width="100" height="100" viewBox="0 0 100 100" fill="none" xmlns="http://www.w3.org/2000/svg">
<path d="M79.1667 79.1668H20.8333V33.3335H79.1667M66.6667 4.16681V12.5001H33.3333V4.16681H25V12.5001H20.8333C16.25 12.5001 12.5 16.2501 12.5 20.8335V79.1668C12.5 81.3769 13.378 83.4966 14.9408 85.0594C16.5036 86.6222 18.6232 87.5001 20.8333 87.5001H79.1667C83.7917 87.5001 87.5 83.7918 87.5 79.1668V20.8335C87.5 18.6233 86.622 16.5037 85.0592 14.9409C83.4964 13.3781 81.3768 12.5001 79.1667 12.5001H75V4.16681M45.3333 50.0001H30.2917L42.4583 58.7918L37.8333 73.1668L50 64.2918L62.1667 73.1668L57.5 58.8335L69.6667 50.0001H54.6667L50 35.6668L45.3333 50.0001Z" fill="#A1A1A1"/>
</svg>
