<svg width="16" height="16" viewBox="0 0 16 16" fill="none" xmlns="http://www.w3.org/2000/svg">
<g clip-path="url(#clip0_459_12212)">
<path d="M6.85748 3.42855L8.53063 1.7554C9.29253 1.01785 10.3138 0.609322 11.3742 0.617931C12.4346 0.62654 13.4491 1.0516 14.1989 1.80142C14.9487 2.55125 15.3738 3.56575 15.3824 4.62613C15.391 5.68651 14.9825 6.70779 14.2449 7.46969L12.5718 9.14283M9.1432 12.5714L7.47005 14.2445C6.70815 14.9821 5.68688 15.3906 4.6265 15.382C3.56612 15.3734 2.55161 14.9484 1.80179 14.1985C1.05196 13.4487 0.626906 12.4342 0.618297 11.3738C0.609689 10.3134 1.01822 9.29216 1.75577 8.53026L3.42891 6.85712M10.2861 5.71426L5.71463 10.2857" stroke="#070707" stroke-width="1.14286" stroke-linecap="round" stroke-linejoin="round"/>
</g>
<defs>
<clipPath id="clip0_459_12212">
<rect width="16" height="16" fill="white"/>
</clipPath>
</defs>
</svg>
