<svg width="20" height="16" viewBox="0 0 20 16" fill="none" xmlns="http://www.w3.org/2000/svg">
<g clip-path="url(#clip0_459_12196)">
<path d="M10.9854 7.98646L12.8778 10.1496L15.4228 11.7758L15.8655 8.00011L15.4228 4.30957L12.8291 5.73812L10.9854 7.98646Z" fill="#00832D"/>
<path d="M0.00390625 11.4244V14.6419C0.00390625 15.3765 0.600229 15.973 1.33502 15.973H4.55246L5.21869 13.542L4.55246 11.4244L2.34506 10.7582L0.00390625 11.4244Z" fill="#0066DA"/>
<path d="M4.55246 0L0.00390625 4.54855L2.34521 5.21319L4.55246 4.54855L5.20656 2.45983L4.55246 0Z" fill="#E94235"/>
<path d="M0.00390625 11.4259H4.55238V4.54846H0.00390625V11.4259Z" fill="#2684FC"/>
<path d="M18.3286 1.92596L15.4229 4.30973V11.7759L18.3405 14.1689C18.7773 14.5111 19.4163 14.1992 19.4163 13.644V2.44023C19.4163 1.87886 18.7621 1.56857 18.3285 1.92603" fill="#00AC47"/>
<path d="M10.9859 7.98645V11.4244H4.55273V15.973H14.0924C14.8272 15.973 15.4234 15.3765 15.4234 14.6418V11.7758L10.9859 7.98645Z" fill="#00AC47"/>
<path d="M14.0924 0H4.55273V4.54855H10.9859V7.9865L15.4235 4.30954V1.33118C15.4235 0.596398 14.8272 7.58294e-05 14.0924 7.58294e-05" fill="#FFBA00"/>
</g>
<defs>
<clipPath id="clip0_459_12196">
<rect width="19.42" height="16" fill="white"/>
</clipPath>
</defs>
</svg>