<svg width="16" height="16" viewBox="0 0 16 16" fill="none" xmlns="http://www.w3.org/2000/svg">
<path d="M8 10C9.10457 10 10 9.10457 10 8C10 6.89543 9.10457 6 8 6C6.89543 6 6 6.89543 6 8C6 9.10457 6.89543 10 8 10Z" stroke="#2A85FF"/>
<path d="M9.17697 1.43465C8.9323 1.33331 8.62163 1.33331 8.0003 1.33331C7.37897 1.33331 7.0683 1.33331 6.82363 1.43465C6.66175 1.50165 6.51467 1.59991 6.39078 1.7238C6.2669 1.84768 6.16864 1.99477 6.10163 2.15665C6.0403 2.30531 6.01563 2.47931 6.0063 2.73198C6.00215 2.91464 5.95163 3.09325 5.85951 3.25103C5.76738 3.40881 5.63667 3.54058 5.47963 3.63398C5.32023 3.72334 5.14073 3.77071 4.95799 3.77165C4.77525 3.77258 4.59527 3.72704 4.43497 3.63931C4.21097 3.52065 4.04897 3.45531 3.8883 3.43398C3.53785 3.38789 3.18343 3.48285 2.90297 3.69798C2.69363 3.85998 2.53763 4.12865 2.22697 4.66665C1.9163 5.20465 1.7603 5.47331 1.7263 5.73665C1.70339 5.91028 1.71491 6.08673 1.76021 6.25591C1.80551 6.42509 1.88369 6.58369 1.9903 6.72265C2.08897 6.85065 2.22697 6.95798 2.44097 7.09265C2.7563 7.29065 2.95897 7.62798 2.95897 7.99998C2.95897 8.37198 2.7563 8.70931 2.44097 8.90665C2.22697 9.04198 2.0883 9.14931 1.9903 9.27731C1.88369 9.41627 1.80551 9.57487 1.76021 9.74405C1.71491 9.91323 1.70339 10.0897 1.7263 10.2633C1.76097 10.526 1.9163 10.7953 2.2263 11.3333C2.53763 11.8713 2.69297 12.14 2.90297 12.302C3.04192 12.4086 3.20052 12.4868 3.3697 12.5321C3.53888 12.5774 3.71533 12.5889 3.88897 12.566C4.04897 12.5446 4.21097 12.4793 4.43497 12.3606C4.59527 12.2729 4.77525 12.2274 4.95799 12.2283C5.14073 12.2292 5.32023 12.2766 5.47963 12.366C5.80163 12.5526 5.99297 12.896 6.0063 13.268C6.01563 13.5213 6.03963 13.6946 6.10163 13.8433C6.16864 14.0052 6.2669 14.1523 6.39078 14.2762C6.51467 14.4 6.66175 14.4983 6.82363 14.5653C7.0683 14.6666 7.37897 14.6666 8.0003 14.6666C8.62163 14.6666 8.9323 14.6666 9.17697 14.5653C9.33885 14.4983 9.48593 14.4 9.60982 14.2762C9.7337 14.1523 9.83196 14.0052 9.89897 13.8433C9.9603 13.6946 9.98497 13.5213 9.9943 13.268C10.0076 12.896 10.199 12.552 10.521 12.366C10.6804 12.2766 10.8599 12.2292 11.0426 12.2283C11.2254 12.2274 11.4053 12.2729 11.5656 12.3606C11.7896 12.4793 11.9516 12.5446 12.1116 12.566C12.2853 12.5889 12.4617 12.5774 12.6309 12.5321C12.8001 12.4868 12.9587 12.4086 13.0976 12.302C13.3076 12.1406 13.463 11.8713 13.7736 11.3333C14.0843 10.7953 14.2403 10.5266 14.2743 10.2633C14.2972 10.0897 14.2857 9.91323 14.2404 9.74405C14.1951 9.57487 14.1169 9.41627 14.0103 9.27731C13.9116 9.14931 13.7736 9.04198 13.5596 8.90731C13.4035 8.81239 13.274 8.67931 13.1834 8.52059C13.0928 8.36188 13.044 8.18273 13.0416 7.99998C13.0416 7.62798 13.2443 7.29065 13.5596 7.09331C13.7736 6.95798 13.9123 6.85065 14.0103 6.72265C14.1169 6.58369 14.1951 6.42509 14.2404 6.25591C14.2857 6.08673 14.2972 5.91028 14.2743 5.73665C14.2396 5.47398 14.0843 5.20465 13.7743 4.66665C13.463 4.12865 13.3076 3.85998 13.0976 3.69798C12.9587 3.59137 12.8001 3.51319 12.6309 3.46789C12.4617 3.42259 12.2853 3.41107 12.1116 3.43398C11.9516 3.45531 11.7896 3.52065 11.565 3.63931C11.4047 3.72692 11.2249 3.7724 11.0423 3.77146C10.8597 3.77053 10.6803 3.72322 10.521 3.63398C10.3639 3.54058 10.2332 3.40881 10.1411 3.25103C10.049 3.09325 9.99845 2.91464 9.9943 2.73198C9.98497 2.47865 9.96097 2.30531 9.89897 2.15665C9.83196 1.99477 9.7337 1.84768 9.60982 1.7238C9.48593 1.59991 9.33885 1.50165 9.17697 1.43465Z" stroke="#2A85FF"/>
</svg>
