<svg width="20" height="20" viewBox="0 0 20 20" fill="none" xmlns="http://www.w3.org/2000/svg">
<path d="M16.6667 16.6667L12.5001 12.5M12.5001 12.5L15.7967 9.20335C15.893 9.10701 15.9641 8.98855 16.004 8.85834C16.0438 8.72813 16.0512 8.59014 16.0253 8.45644C15.9995 8.32274 15.9413 8.1974 15.8559 8.09139C15.7704 7.98539 15.6603 7.90194 15.5351 7.84835L11.1509 5.96919C11.0502 5.92609 10.959 5.86358 10.8825 5.78522C10.806 5.70687 10.7457 5.6142 10.7051 5.51252L9.6359 2.84002C9.58468 2.71205 9.50252 2.59879 9.39678 2.51038C9.29103 2.42196 9.16501 2.36116 9.02999 2.33341C8.89498 2.30567 8.75519 2.31185 8.62315 2.35139C8.49111 2.39094 8.37094 2.46262 8.2734 2.56002L2.56007 8.27335C2.46267 8.37089 2.39099 8.49106 2.35144 8.6231C2.3119 8.75514 2.30572 8.89493 2.33346 9.02994C2.36121 9.16496 2.42201 9.29098 2.51043 9.39673C2.59884 9.50247 2.7121 9.58463 2.84007 9.63585L5.51257 10.705C5.61425 10.7457 5.70692 10.806 5.78527 10.8825C5.86363 10.959 5.92614 11.0502 5.96924 11.1509L7.8484 15.535C7.90199 15.6602 7.98544 15.7703 8.09144 15.8558C8.19745 15.9413 8.32279 15.9995 8.45649 16.0253C8.59019 16.0511 8.72818 16.0438 8.85839 16.0039C8.9886 15.9641 9.10706 15.8929 9.2034 15.7967L12.5001 12.5Z" stroke="#A1A1A1" stroke-width="1.66667" stroke-linecap="round" stroke-linejoin="round"/>
</svg>
