<svg width="16" height="16" viewBox="0 0 16 16" fill="none" xmlns="http://www.w3.org/2000/svg">
    <g clip-path="url(#clip0_15_1649)">
        <path
            d="M12.5 6H12V4.09175C12 1.79725 10.3398 0 7.9815 0C5.61375 0 4 1.8355 4 4.09175V6H3.5C2.397 6 1.5 6.897 1.5 8V14C1.5 15.103 2.397 16 3.5 16H12.5C13.603 16 14.5 15.103 14.5 14V8C14.5 6.897 13.603 6 12.5 6ZM5 4.09175C5 2.38725 6.165 1 7.9815 1C9.77925 1 11 2.358 11 4.09175V6H5V4.09175ZM13.5 14C13.5 14.5513 13.0513 15 12.5 15H3.50002C2.94877 15 2.50002 14.5513 2.50002 14V8C2.50002 7.44875 2.94877 7 3.50002 7H12.5C13.0513 7 13.5 7.44875 13.5 8V14ZM8.00002 9C7.44777 9 7.00002 9.44775 7.00002 10C7.00002 10.3693 7.20252 10.688 7.50002 10.8612V12.5C7.50002 12.776 7.72402 13 8.00002 13C8.27602 13 8.50002 12.776 8.50002 12.5V10.8612C8.79752 10.688 9.00002 10.369 9.00002 10C9.00002 9.44775 8.55227 9 8.00002 9Z"
            fill="#A1A1A1" />
    </g>
    <defs>
        <clipPath id="clip0_15_1649">
            <rect width="16" height="16" fill="white" />
        </clipPath>
    </defs>
</svg>