<svg width="16" height="16" viewBox="0 0 16 16" fill="none" xmlns="http://www.w3.org/2000/svg">
    <path
        d="M3.33317 6V14H0.666504V6H3.33317ZM5.99984 14C5.64622 14 5.30708 13.8595 5.05703 13.6095C4.80698 13.3594 4.6665 13.0203 4.6665 12.6667V6C4.6665 5.63333 4.81317 5.3 5.05984 5.06L9.4465 0.666664L10.1532 1.37333C10.3332 1.55333 10.4465 1.8 10.4465 2.07333L10.4265 2.28666L9.79317 5.33333H13.9998C14.3535 5.33333 14.6926 5.47381 14.9426 5.72386C15.1927 5.9739 15.3332 6.31304 15.3332 6.66666V8C15.3332 8.17333 15.2998 8.33333 15.2398 8.48666L13.2265 13.1867C13.0265 13.6667 12.5532 14 11.9998 14H5.99984ZM5.99984 12.6667H12.0198L13.9998 8V6.66666H8.13984L8.89317 3.12L5.99984 6.02V12.6667Z"
        fill="#59ACFF" />
</svg>