<svg width="20" height="20" viewBox="0 0 20 20" fill="none" xmlns="http://www.w3.org/2000/svg">
    <g clip-path="url(#clip0_14_1582)">
        <path
            d="M18.0664 6.71875C18.3594 6.88151 18.6263 7.08008 18.8672 7.31445C19.1081 7.54883 19.3099 7.80924 19.4727 8.0957C19.6354 8.38216 19.7656 8.6849 19.8633 9.00391C19.9609 9.32292 20.0065 9.65495 20 10H18.75C18.75 9.66146 18.6849 9.33919 18.5547 9.0332C18.4245 8.72721 18.2454 8.46354 18.0176 8.24219C17.7897 8.02083 17.5228 7.8418 17.2168 7.70508C16.9108 7.56836 16.5885 7.5 16.25 7.5C15.9049 7.5 15.5827 7.5651 15.2832 7.69531C14.9837 7.82552 14.7201 8.00456 14.4922 8.23242C14.2643 8.46029 14.0853 8.72721 13.9551 9.0332C13.8249 9.33919 13.7565 9.66146 13.75 10C13.75 10.5924 13.6165 11.1556 13.3496 11.6895C13.0827 12.2233 12.7083 12.666 12.2266 13.0176C12.6497 13.2324 13.0306 13.4961 13.3691 13.8086C13.7077 14.1211 14.0007 14.4727 14.248 14.8633C14.4954 15.2539 14.681 15.6706 14.8047 16.1133C14.9284 16.556 14.9935 17.0182 15 17.5H13.75C13.75 16.9857 13.6523 16.5007 13.457 16.0449C13.2617 15.5892 12.9915 15.1921 12.6465 14.8535C12.3014 14.515 11.9043 14.248 11.4551 14.0527C11.0059 13.8574 10.5208 13.7565 10 13.75C9.48568 13.75 9.00065 13.8477 8.54492 14.043C8.08919 14.2383 7.69206 14.5085 7.35352 14.8535C7.01497 15.1986 6.74805 15.5957 6.55273 16.0449C6.35742 16.4941 6.25651 16.9792 6.25 17.5H5C5 17.0247 5.0651 16.5658 5.19531 16.123C5.32552 15.6803 5.51107 15.2637 5.75195 14.873C5.99284 14.4824 6.28255 14.1309 6.62109 13.8184C6.95964 13.5059 7.34375 13.2389 7.77344 13.0176C7.29818 12.666 6.92708 12.2233 6.66016 11.6895C6.39323 11.1556 6.25651 10.5924 6.25 10C6.25 9.66146 6.1849 9.33919 6.05469 9.0332C5.92448 8.72721 5.74544 8.46354 5.51758 8.24219C5.28971 8.02083 5.02279 7.8418 4.7168 7.70508C4.41081 7.56836 4.08854 7.5 3.75 7.5C3.40495 7.5 3.08268 7.5651 2.7832 7.69531C2.48372 7.82552 2.22005 8.00456 1.99219 8.23242C1.76432 8.46029 1.58529 8.72721 1.45508 9.0332C1.32487 9.33919 1.25651 9.66146 1.25 10H0C0 9.66146 0.0455729 9.33268 0.136719 9.01367C0.227865 8.69466 0.354818 8.39193 0.517578 8.10547C0.680339 7.81901 0.885417 7.55859 1.13281 7.32422C1.38021 7.08984 1.64714 6.88802 1.93359 6.71875C1.71875 6.49089 1.55273 6.22721 1.43555 5.92773C1.31836 5.62826 1.25651 5.31901 1.25 5C1.25 4.66146 1.3151 4.33919 1.44531 4.0332C1.57552 3.72721 1.75456 3.46354 1.98242 3.24219C2.21029 3.02083 2.47396 2.8418 2.77344 2.70508C3.07292 2.56836 3.39844 2.5 3.75 2.5C4.08854 2.5 4.41081 2.5651 4.7168 2.69531C5.02279 2.82552 5.28646 3.00456 5.50781 3.23242C5.72917 3.46029 5.9082 3.72721 6.04492 4.0332C6.18164 4.33919 6.25 4.66146 6.25 5C6.25 5.31901 6.19141 5.62826 6.07422 5.92773C5.95703 6.22721 5.78776 6.49089 5.56641 6.71875C6.10026 7.01172 6.53646 7.41536 6.875 7.92969C7.22656 7.40885 7.67578 6.9987 8.22266 6.69922C8.76953 6.39974 9.36198 6.25 10 6.25C10.6315 6.25 11.2207 6.39974 11.7676 6.69922C12.3145 6.9987 12.7669 7.40885 13.125 7.92969C13.4635 7.41536 13.8997 7.01172 14.4336 6.71875C14.2188 6.49089 14.0527 6.22721 13.9355 5.92773C13.8184 5.62826 13.7565 5.31901 13.75 5C13.75 4.66146 13.8151 4.33919 13.9453 4.0332C14.0755 3.72721 14.2546 3.46354 14.4824 3.24219C14.7103 3.02083 14.974 2.8418 15.2734 2.70508C15.5729 2.56836 15.8984 2.5 16.25 2.5C16.5885 2.5 16.9108 2.5651 17.2168 2.69531C17.5228 2.82552 17.7865 3.00456 18.0078 3.23242C18.2292 3.46029 18.4082 3.72721 18.5449 4.0332C18.6816 4.33919 18.75 4.66146 18.75 5C18.75 5.31901 18.6914 5.62826 18.5742 5.92773C18.457 6.22721 18.2878 6.49089 18.0664 6.71875ZM2.5 5C2.5 5.17578 2.53255 5.33854 2.59766 5.48828C2.66276 5.63802 2.75065 5.76823 2.86133 5.87891C2.97201 5.98958 3.10547 6.08073 3.26172 6.15234C3.41797 6.22396 3.58073 6.25651 3.75 6.25C3.92578 6.25 4.08854 6.21745 4.23828 6.15234C4.38802 6.08724 4.51823 5.99935 4.62891 5.88867C4.73958 5.77799 4.83073 5.64453 4.90234 5.48828C4.97396 5.33203 5.00651 5.16927 5 5C5 4.82422 4.96745 4.66146 4.90234 4.51172C4.83724 4.36198 4.74935 4.23177 4.63867 4.12109C4.52799 4.01042 4.39453 3.91927 4.23828 3.84766C4.08203 3.77604 3.91927 3.74349 3.75 3.75C3.57422 3.75 3.41146 3.78255 3.26172 3.84766C3.11198 3.91276 2.98177 4.00065 2.87109 4.11133C2.76042 4.22201 2.66927 4.35547 2.59766 4.51172C2.52604 4.66797 2.49349 4.83073 2.5 5ZM10 12.5C10.3385 12.5 10.6608 12.4349 10.9668 12.3047C11.2728 12.1745 11.5365 11.9954 11.7578 11.7676C11.9792 11.5397 12.1582 11.276 12.2949 10.9766C12.4316 10.6771 12.5 10.3516 12.5 10C12.5 9.66146 12.4349 9.33919 12.3047 9.0332C12.1745 8.72721 11.9954 8.46354 11.7676 8.24219C11.5397 8.02083 11.2728 7.8418 10.9668 7.70508C10.6608 7.56836 10.3385 7.5 10 7.5C9.65495 7.5 9.33268 7.5651 9.0332 7.69531C8.73372 7.82552 8.47005 8.00456 8.24219 8.23242C8.01432 8.46029 7.83529 8.72721 7.70508 9.0332C7.57487 9.33919 7.50651 9.66146 7.5 10C7.5 10.3451 7.5651 10.6673 7.69531 10.9668C7.82552 11.2663 8.00456 11.5299 8.23242 11.7578C8.46029 11.9857 8.72396 12.1647 9.02344 12.2949C9.32292 12.4251 9.64844 12.4935 10 12.5ZM15 5C15 5.17578 15.0326 5.33854 15.0977 5.48828C15.1628 5.63802 15.2507 5.76823 15.3613 5.87891C15.472 5.98958 15.6055 6.08073 15.7617 6.15234C15.918 6.22396 16.0807 6.25651 16.25 6.25C16.4258 6.25 16.5885 6.21745 16.7383 6.15234C16.888 6.08724 17.0182 5.99935 17.1289 5.88867C17.2396 5.77799 17.3307 5.64453 17.4023 5.48828C17.474 5.33203 17.5065 5.16927 17.5 5C17.5 4.82422 17.4674 4.66146 17.4023 4.51172C17.3372 4.36198 17.2493 4.23177 17.1387 4.12109C17.028 4.01042 16.8945 3.91927 16.7383 3.84766C16.582 3.77604 16.4193 3.74349 16.25 3.75C16.0742 3.75 15.9115 3.78255 15.7617 3.84766C15.612 3.91276 15.4818 4.00065 15.3711 4.11133C15.2604 4.22201 15.1693 4.35547 15.0977 4.51172C15.026 4.66797 14.9935 4.83073 15 5Z"
            fill="#070707" />
    </g>
    <defs>
        <clipPath id="clip0_14_1582">
            <rect width="20" height="20" fill="white" />
        </clipPath>
    </defs>
</svg>