<svg width="16" height="16" viewBox="0 0 16 16" fill="none" xmlns="http://www.w3.org/2000/svg">
    <path
        d="M3.73333 13.28L4.74933 12.4673L4.756 12.462C4.968 12.292 5.07533 12.2067 5.19467 12.146C5.30133 12.0913 5.41533 12.0513 5.53333 12.0273C5.666 12 5.804 12 6.08133 12H11.8687C12.614 12 12.9873 12 13.272 11.8547C13.5229 11.7268 13.7268 11.5229 13.8547 11.272C14 10.9867 14 10.6133 14 9.86933V4.798C14 4.05266 14 3.67933 13.8547 3.39466C13.7266 3.14372 13.5224 2.93975 13.2713 2.812C12.9867 2.66666 12.6133 2.66666 11.8667 2.66666H4.13333C3.38667 2.66666 3.01333 2.66666 2.728 2.812C2.4771 2.93979 2.27313 3.14377 2.14533 3.39466C2 3.68 2 4.05333 2 4.8V12.4473C2 13.158 2 13.5133 2.14533 13.6953C2.20783 13.7738 2.28722 13.8371 2.3776 13.8807C2.46799 13.9242 2.56702 13.9467 2.66733 13.9467C2.90067 13.9467 3.178 13.724 3.73333 13.28Z"
        stroke="#59ACFF" stroke-width="1.33333" stroke-linecap="round" stroke-linejoin="round" />
</svg>