<svg width="20" height="20" viewBox="0 0 20 20" fill="none" xmlns="http://www.w3.org/2000/svg">
    <path
        d="M13.75 7.5C14.0815 7.5 14.3994 7.3683 14.6339 7.13388C14.8683 6.89946 15 6.58152 15 6.25C15 5.91848 14.8683 5.60054 14.6339 5.36612C14.3994 5.1317 14.0815 5 13.75 5C13.4185 5 13.1005 5.1317 12.8661 5.36612C12.6317 5.60054 12.5 5.91848 12.5 6.25C12.5 6.58152 12.6317 6.89946 12.8661 7.13388C13.1005 7.3683 13.4185 7.5 13.75 7.5ZM3.23372 12.67C3.00099 12.439 2.81627 12.1642 2.69022 11.8615C2.56416 11.5588 2.49927 11.2342 2.49927 10.9063C2.49927 10.5783 2.56416 10.2537 2.69022 9.95097C2.81627 9.64826 3.00099 9.37349 3.23372 9.1425L9.15872 3.2475C9.6274 2.78192 10.2606 2.51966 10.9212 2.5175L14.9825 2.5C15.3133 2.49768 15.6413 2.56105 15.9475 2.68643C16.2536 2.81181 16.5318 2.99671 16.766 3.23042C17.0002 3.46412 17.1856 3.74198 17.3116 4.04789C17.4376 4.3538 17.5016 4.68167 17.5 5.0125L17.47 9.21625C17.4646 9.87207 17.2004 10.4992 16.735 10.9613L10.8975 16.77C10.4264 17.2377 9.78944 17.5002 9.1256 17.5002C8.46176 17.5002 7.82484 17.2377 7.35372 16.77L3.23372 12.67ZM4.11997 10.025C4.00379 10.1405 3.91159 10.2778 3.84868 10.429C3.78576 10.5803 3.75337 10.7424 3.75337 10.9063C3.75337 11.0701 3.78576 11.2322 3.84868 11.3835C3.91159 11.5347 4.00379 11.672 4.11997 11.7875L8.23997 15.8875C8.72997 16.375 9.52247 16.375 10.0125 15.8875L15.85 10.0788C16.0822 9.84753 16.2139 9.53398 16.2162 9.20625L16.2462 5.0025C16.2469 4.83729 16.2148 4.6736 16.1518 4.52087C16.0888 4.36814 15.9962 4.22942 15.8792 4.11272C15.7623 3.99601 15.6234 3.90365 15.4705 3.84096C15.3177 3.77827 15.1539 3.74651 14.9887 3.7475L10.9262 3.76375C10.5959 3.76483 10.2793 3.89596 10.045 4.12875L4.11997 10.025Z"
        fill="#070707" />
</svg>