<svg width="17" height="17" viewBox="0 0 17 17" fill="none" xmlns="http://www.w3.org/2000/svg">
    <path
        d="M13.8333 13.8333L10.5 10.5M10.5 10.5L13.1373 7.86267C13.2143 7.78559 13.2712 7.69083 13.3031 7.58666C13.335 7.48249 13.3408 7.3721 13.3202 7.26514C13.2995 7.15818 13.253 7.05791 13.1846 6.9731C13.1162 6.8883 13.0281 6.82154 12.928 6.77867L9.42062 5.27534C9.34009 5.24086 9.26713 5.19085 9.20593 5.12817C9.14473 5.06548 9.09649 4.99135 9.06396 4.91L8.20862 2.772C8.16765 2.66963 8.10192 2.57902 8.01732 2.50829C7.93273 2.43756 7.83191 2.38892 7.7239 2.36672C7.61588 2.34452 7.50405 2.34946 7.39842 2.3811C7.29279 2.41274 7.19665 2.47009 7.11862 2.548L2.54796 7.11867C2.47004 7.1967 2.41269 7.29283 2.38106 7.39847C2.34942 7.5041 2.34448 7.61593 2.36667 7.72394C2.38887 7.83195 2.43751 7.93277 2.50824 8.01737C2.57897 8.10196 2.66958 8.16769 2.77196 8.20867L4.90996 9.064C4.9913 9.09653 5.06543 9.14478 5.12812 9.20598C5.19081 9.26718 5.24082 9.34013 5.27529 9.42067L6.77862 12.928C6.82149 13.0281 6.88825 13.1163 6.97306 13.1846C7.05786 13.253 7.15813 13.2996 7.26509 13.3202C7.37205 13.3409 7.48245 13.335 7.58661 13.3031C7.69078 13.2712 7.78555 13.2143 7.86262 13.1373L10.5 10.5Z"
        stroke="#070707" stroke-width="1.33333" stroke-linecap="round" stroke-linejoin="round" />
</svg>