<svg width="18" height="18" viewBox="0 0 18 18" fill="none" xmlns="http://www.w3.org/2000/svg">
    <path
        d="M14.0625 6.75H13.5V4.60322C13.5 2.02191 11.6322 0 8.97919 0C6.31547 0 4.5 2.06494 4.5 4.60322V6.75H3.9375C2.69662 6.75 1.6875 7.75912 1.6875 9V15.75C1.6875 16.9909 2.69662 18 3.9375 18H14.0625C15.3034 18 16.3125 16.9909 16.3125 15.75V9C16.3125 7.75912 15.3034 6.75 14.0625 6.75ZM5.625 4.60322C5.625 2.68566 6.93563 1.125 8.97919 1.125C11.0017 1.125 12.375 2.65275 12.375 4.60322V6.75H5.625V4.60322ZM15.1875 15.75C15.1875 16.3702 14.6827 16.875 14.0625 16.875H3.93752C3.31736 16.875 2.81252 16.3702 2.81252 15.75V9C2.81252 8.37984 3.31736 7.875 3.93752 7.875H14.0625C14.6827 7.875 15.1875 8.37984 15.1875 9V15.75ZM9.00002 10.125C8.37874 10.125 7.87502 10.6287 7.87502 11.25C7.87502 11.6654 8.10283 12.024 8.43752 12.2189V14.0625C8.43752 14.373 8.68952 14.625 9.00002 14.625C9.31052 14.625 9.56252 14.373 9.56252 14.0625V12.2189C9.8972 12.024 10.125 11.6651 10.125 11.25C10.125 10.6287 9.6213 10.125 9.00002 10.125Z"
        fill="#070707" />
</svg>