<svg width="14" height="14" viewBox="0 0 14 14" fill="none" xmlns="http://www.w3.org/2000/svg">
<path d="M7.75 10.25C7.75 10.3983 7.70602 10.5433 7.6236 10.6667C7.54119 10.79 7.42406 10.8861 7.28701 10.9429C7.14997 10.9997 6.99917 11.0145 6.85368 10.9856C6.7082 10.9566 6.57456 10.8852 6.46967 10.7803C6.36478 10.6754 6.29335 10.5418 6.26441 10.3963C6.23548 10.2508 6.25033 10.1 6.30709 9.96299C6.36386 9.82594 6.45999 9.70881 6.58333 9.6264C6.70666 9.54399 6.85167 9.5 7 9.5C7.19892 9.5 7.38968 9.57902 7.53033 9.71967C7.67098 9.86032 7.75 10.0511 7.75 10.25ZM7 3.5C5.62125 3.5 4.5 4.50938 4.5 5.75V6C4.5 6.13261 4.55268 6.25979 4.64645 6.35355C4.74022 6.44732 4.86739 6.5 5 6.5C5.13261 6.5 5.25979 6.44732 5.35356 6.35355C5.44732 6.25979 5.5 6.13261 5.5 6V5.75C5.5 5.0625 6.17313 4.5 7 4.5C7.82688 4.5 8.5 5.0625 8.5 5.75C8.5 6.4375 7.82688 7 7 7C6.86739 7 6.74022 7.05268 6.64645 7.14645C6.55268 7.24021 6.5 7.36739 6.5 7.5V8C6.5 8.13261 6.55268 8.25979 6.64645 8.35355C6.74022 8.44732 6.86739 8.5 7 8.5C7.13261 8.5 7.25979 8.44732 7.35356 8.35355C7.44732 8.25979 7.5 8.13261 7.5 8V7.955C8.64 7.74563 9.5 6.83625 9.5 5.75C9.5 4.50938 8.37875 3.5 7 3.5ZM13.5 7C13.5 8.28558 13.1188 9.54229 12.4046 10.6112C11.6903 11.6801 10.6752 12.5132 9.48744 13.0052C8.29973 13.4972 6.99279 13.6259 5.73192 13.3751C4.47104 13.1243 3.31285 12.5052 2.40381 11.5962C1.49477 10.6872 0.875703 9.52896 0.624899 8.26809C0.374095 7.00721 0.502816 5.70028 0.994786 4.51256C1.48676 3.32484 2.31988 2.30968 3.3888 1.59545C4.45772 0.881218 5.71442 0.5 7 0.5C8.72335 0.50182 10.3756 1.18722 11.5942 2.40582C12.8128 3.62441 13.4982 5.27665 13.5 7ZM12.5 7C12.5 5.9122 12.1774 4.84883 11.5731 3.94436C10.9687 3.03989 10.1098 2.33494 9.10476 1.91866C8.09977 1.50238 6.9939 1.39346 5.92701 1.60568C4.86011 1.8179 3.8801 2.34172 3.11092 3.11091C2.34173 3.8801 1.8179 4.86011 1.60568 5.927C1.39347 6.9939 1.50238 8.09977 1.91867 9.10476C2.33495 10.1098 3.0399 10.9687 3.94437 11.5731C4.84884 12.1774 5.91221 12.5 7 12.5C8.45819 12.4983 9.85617 11.9184 10.8873 10.8873C11.9184 9.85617 12.4983 8.45818 12.5 7Z" fill="#A1A1A1"/>
</svg>
