<svg width="18" height="18" viewBox="0 0 18 18" fill="none" xmlns="http://www.w3.org/2000/svg">
<path d="M5.24935 1.91669C4.91783 1.91669 4.59989 2.04838 4.36547 2.2828C4.13105 2.51722 3.99935 2.83517 3.99935 3.16669C3.99935 3.49821 4.13105 3.81615 4.36547 4.05057C4.59989 4.28499 4.91783 4.41669 5.24935 4.41669C5.58087 4.41669 5.89881 4.28499 6.13323 4.05057C6.36765 3.81615 6.49935 3.49821 6.49935 3.16669C6.49935 2.83517 6.36765 2.51722 6.13323 2.2828C5.89881 2.04838 5.58087 1.91669 5.24935 1.91669ZM2.74935 3.16669C2.74935 2.50365 3.01274 1.86776 3.48158 1.39892C3.95042 0.930079 4.58631 0.666687 5.24935 0.666687C5.91239 0.666687 6.54828 0.930079 7.01712 1.39892C7.48596 1.86776 7.74935 2.50365 7.74935 3.16669C7.74935 3.82973 7.48596 4.46561 7.01712 4.93445C6.54828 5.4033 5.91239 5.66669 5.24935 5.66669C4.58631 5.66669 3.95042 5.4033 3.48158 4.93445C3.01274 4.46561 2.74935 3.82973 2.74935 3.16669ZM2.13935 6.50002C1.32435 6.50002 0.666016 7.15919 0.666016 7.97335V8.27335C0.666016 8.44585 0.666016 9.44669 1.24935 10.4192C1.70602 11.1775 2.48018 11.8584 3.72852 12.1634C3.89949 11.7089 4.2091 11.3197 4.61352 11.0509C3.27768 10.9084 2.64602 10.315 2.32185 9.77585C1.91852 9.10419 1.91602 8.38919 1.91602 8.27085V7.97335C1.91602 7.85002 2.01602 7.75002 2.13935 7.75002H5.69102C5.74606 7.30935 5.88918 6.88426 6.11185 6.50002H2.13935ZM11.8868 6.50002C12.1044 6.87669 12.251 7.29919 12.3068 7.75002H15.8594C15.9827 7.75002 16.0827 7.85002 16.0827 7.97335V8.27085C16.0827 8.38919 16.0802 9.10419 15.6769 9.77502C15.3527 10.315 14.721 10.9084 13.3852 11.0509C13.7852 11.3175 14.0985 11.7059 14.2702 12.1634C15.5185 11.8584 16.2927 11.1775 16.7485 10.4192C17.3327 9.44669 17.3327 8.44669 17.3327 8.27252V7.97252C17.3327 7.16002 16.6735 6.50002 15.8594 6.50002H11.8868ZM11.4993 3.16669C11.4993 2.83517 11.631 2.51722 11.8655 2.2828C12.0999 2.04838 12.4178 1.91669 12.7493 1.91669C13.0809 1.91669 13.3988 2.04838 13.6332 2.2828C13.8677 2.51722 13.9993 2.83517 13.9993 3.16669C13.9993 3.49821 13.8677 3.81615 13.6332 4.05057C13.3988 4.28499 13.0809 4.41669 12.7493 4.41669C12.4178 4.41669 12.0999 4.28499 11.8655 4.05057C11.631 3.81615 11.4993 3.49821 11.4993 3.16669ZM12.7493 0.666687C12.0863 0.666687 11.4504 0.930079 10.9816 1.39892C10.5127 1.86776 10.2493 2.50365 10.2493 3.16669C10.2493 3.82973 10.5127 4.46561 10.9816 4.93445C11.4504 5.4033 12.0863 5.66669 12.7493 5.66669C13.4124 5.66669 14.0483 5.4033 14.5171 4.93445C14.986 4.46561 15.2493 3.82973 15.2493 3.16669C15.2493 2.50365 14.986 1.86776 14.5171 1.39892C14.0483 0.930079 13.4124 0.666687 12.7493 0.666687ZM8.99935 6.91669C8.8352 6.91669 8.67265 6.94902 8.521 7.01184C8.36934 7.07466 8.23154 7.16673 8.11547 7.2828C7.99939 7.39888 7.90732 7.53668 7.8445 7.68833C7.78168 7.83999 7.74935 8.00253 7.74935 8.16669C7.74935 8.33084 7.78168 8.49338 7.8445 8.64504C7.90732 8.7967 7.99939 8.9345 8.11547 9.05057C8.23154 9.16664 8.36934 9.25872 8.521 9.32154C8.67265 9.38436 8.8352 9.41669 8.99935 9.41669C9.33087 9.41669 9.64881 9.28499 9.88323 9.05057C10.1177 8.81615 10.2493 8.49821 10.2493 8.16669C10.2493 7.83517 10.1177 7.51722 9.88323 7.2828C9.64881 7.04838 9.33087 6.91669 8.99935 6.91669ZM6.49935 8.16669C6.49935 7.50365 6.76274 6.86776 7.23158 6.39892C7.70042 5.93008 8.33631 5.66669 8.99935 5.66669C9.66239 5.66669 10.2983 5.93008 10.7671 6.39892C11.236 6.86776 11.4993 7.50365 11.4993 8.16669C11.4993 8.82973 11.236 9.46561 10.7671 9.93445C10.2983 10.4033 9.66239 10.6667 8.99935 10.6667C8.33631 10.6667 7.70042 10.4033 7.23158 9.93445C6.76274 9.46561 6.49935 8.82973 6.49935 8.16669ZM4.41602 12.9734C4.41602 12.1584 5.07518 11.5 5.88935 11.5H12.1094C12.9235 11.5 13.5827 12.1592 13.5827 12.9734V13.2734C13.5827 13.4459 13.5827 14.4467 12.9993 15.4192C12.3802 16.4475 11.1768 17.3334 8.99935 17.3334C6.82185 17.3334 5.61768 16.4475 4.99935 15.4192C4.41602 14.4467 4.41602 13.4467 4.41602 13.2725V12.9734ZM5.88935 12.75C5.86002 12.75 5.83098 12.7558 5.80388 12.767C5.77679 12.7782 5.75217 12.7947 5.73143 12.8154C5.71069 12.8362 5.69424 12.8608 5.68302 12.8879C5.67179 12.915 5.66602 12.944 5.66602 12.9734V13.2709C5.66602 13.3892 5.66852 14.1042 6.07185 14.775C6.44352 15.3942 7.21935 16.0834 8.99935 16.0834C10.7793 16.0834 11.5552 15.3942 11.9268 14.775C12.3302 14.1042 12.3327 13.3892 12.3327 13.2709V12.9734C12.3327 12.9141 12.3092 12.8573 12.2673 12.8154C12.2254 12.7736 12.1686 12.75 12.1094 12.75H5.88935Z" fill="#070707"/>
</svg>
